%TF.GenerationSoftware,KiCad,Pcbnew,7.0.1*%
%TF.CreationDate,2023-04-09T16:17:10+09:00*%
%TF.ProjectId,RS232_Converter,52533233-325f-4436-9f6e-766572746572,rev?*%
%TF.SameCoordinates,Original*%
%TF.FileFunction,Plated,1,2,PTH,Drill*%
%TF.FilePolarity,Positive*%
%FSLAX46Y46*%
G04 Gerber Fmt 4.6, Leading zero omitted, Abs format (unit mm)*
G04 Created by KiCad (PCBNEW 7.0.1) date 2023-04-09 16:17:10*
%MOMM*%
%LPD*%
G01*
G04 APERTURE LIST*
%TA.AperFunction,ViaDrill*%
%ADD10C,0.400000*%
%TD*%
%TA.AperFunction,ComponentDrill*%
%ADD11C,0.800000*%
%TD*%
%TA.AperFunction,ComponentDrill*%
%ADD12C,0.900000*%
%TD*%
%TA.AperFunction,ComponentDrill*%
%ADD13C,0.950000*%
%TD*%
%TA.AperFunction,ComponentDrill*%
%ADD14C,1.000000*%
%TD*%
%TA.AperFunction,ComponentDrill*%
%ADD15C,2.200000*%
%TD*%
%TA.AperFunction,ComponentDrill*%
%ADD16C,2.300000*%
%TD*%
G04 APERTURE END LIST*
D10*
X144780000Y-104140000D03*
X144780000Y-109220000D03*
D11*
%TO.C,R2*%
X119380000Y-97790000D03*
X119380000Y-107950000D03*
%TO.C,R1*%
X127000000Y-97790000D03*
X127000000Y-107950000D03*
%TO.C,C2*%
X136719669Y-109760331D03*
%TO.C,C1*%
X138470000Y-89440331D03*
%TO.C,C2*%
X141719669Y-109760331D03*
%TO.C,C1*%
X143470000Y-89440331D03*
%TO.C,C7*%
X147320000Y-86440000D03*
X147320000Y-91440000D03*
%TO.C,C3*%
X150919669Y-94520331D03*
X150919669Y-97020331D03*
%TO.C,C4*%
X150919669Y-100640331D03*
X150919669Y-103140331D03*
%TO.C,U2*%
X157279669Y-93265331D03*
X157279669Y-95805331D03*
X157279669Y-98345331D03*
X157279669Y-100885331D03*
X157279669Y-103425331D03*
X157279669Y-105965331D03*
X157279669Y-108505331D03*
X157279669Y-111045331D03*
%TO.C,C6*%
X159579669Y-86360000D03*
X162079669Y-86360000D03*
%TO.C,C5*%
X162159669Y-117380331D03*
X164659669Y-117380331D03*
%TO.C,U2*%
X164899669Y-93265331D03*
X164899669Y-95805331D03*
X164899669Y-98345331D03*
X164899669Y-100885331D03*
X164899669Y-103425331D03*
X164899669Y-105965331D03*
X164899669Y-108505331D03*
X164899669Y-111045331D03*
D12*
%TO.C,D1*%
X132080000Y-83820000D03*
%TO.C,D3*%
X132080000Y-91440000D03*
%TO.C,D1*%
X134620000Y-83820000D03*
%TO.C,D3*%
X134620000Y-91440000D03*
D13*
%TO.C,J1*%
X109987169Y-100890331D03*
X109987169Y-103390331D03*
X111987169Y-100890331D03*
X111987169Y-103390331D03*
D14*
%TO.C,J2*%
X179329669Y-96050000D03*
X179329669Y-98820000D03*
X179329669Y-101590000D03*
X179329669Y-104360000D03*
X179329669Y-107130000D03*
X181869669Y-97435000D03*
X181869669Y-100205000D03*
X181869669Y-102975000D03*
X181869669Y-105745000D03*
D15*
%TO.C,REF\u002A\u002A*%
X104140000Y-78740000D03*
X104140000Y-124460000D03*
X185420000Y-78740000D03*
X185420000Y-124460000D03*
D16*
%TO.C,J1*%
X107127169Y-96140331D03*
X107127169Y-108140331D03*
M02*
