%TF.GenerationSoftware,KiCad,Pcbnew,7.0.1*%
%TF.CreationDate,2023-04-09T16:17:14+09:00*%
%TF.ProjectId,RS232_Converter,52533233-325f-4436-9f6e-766572746572,rev?*%
%TF.SameCoordinates,Original*%
%TF.FileFunction,Copper,L1,Top*%
%TF.FilePolarity,Positive*%
%FSLAX46Y46*%
G04 Gerber Fmt 4.6, Leading zero omitted, Abs format (unit mm)*
G04 Created by KiCad (PCBNEW 7.0.1) date 2023-04-09 16:17:14*
%MOMM*%
%LPD*%
G01*
G04 APERTURE LIST*
%TA.AperFunction,ComponentPad*%
%ADD10R,1.600000X1.600000*%
%TD*%
%TA.AperFunction,ComponentPad*%
%ADD11C,1.600000*%
%TD*%
%TA.AperFunction,ComponentPad*%
%ADD12C,3.500000*%
%TD*%
%TA.AperFunction,ComponentPad*%
%ADD13R,1.800000X1.800000*%
%TD*%
%TA.AperFunction,ComponentPad*%
%ADD14C,1.800000*%
%TD*%
%TA.AperFunction,ComponentPad*%
%ADD15C,4.000000*%
%TD*%
%TA.AperFunction,ComponentPad*%
%ADD16O,1.600000X1.600000*%
%TD*%
%TA.AperFunction,SMDPad,CuDef*%
%ADD17R,0.450000X1.750000*%
%TD*%
%TA.AperFunction,ViaPad*%
%ADD18C,0.800000*%
%TD*%
%TA.AperFunction,Conductor*%
%ADD19C,0.250000*%
%TD*%
G04 APERTURE END LIST*
D10*
%TO.P,C4,1*%
%TO.N,Net-(U2-C2+)*%
X150919669Y-100640331D03*
D11*
%TO.P,C4,2*%
%TO.N,Net-(U2-C2-)*%
X150919669Y-103140331D03*
%TD*%
D12*
%TO.P,REF\u002A\u002A,1*%
%TO.N,N/C*%
X185420000Y-78740000D03*
%TD*%
D10*
%TO.P,J2,1,1*%
%TO.N,Net-(J1-VBUS)*%
X179329669Y-96050000D03*
D11*
%TO.P,J2,2,2*%
%TO.N,Net-(U2-R1IN)*%
X179329669Y-98820000D03*
%TO.P,J2,3,3*%
%TO.N,Net-(U2-T1OUT)*%
X179329669Y-101590000D03*
%TO.P,J2,4,4*%
%TO.N,unconnected-(J2-Pad4)*%
X179329669Y-104360000D03*
%TO.P,J2,5,5*%
%TO.N,Net-(J1-GND)*%
X179329669Y-107130000D03*
%TO.P,J2,6,6*%
%TO.N,unconnected-(J2-Pad6)*%
X181869669Y-97435000D03*
%TO.P,J2,7,7*%
%TO.N,unconnected-(J2-Pad7)*%
X181869669Y-100205000D03*
%TO.P,J2,8,8*%
%TO.N,unconnected-(J2-Pad8)*%
X181869669Y-102975000D03*
%TO.P,J2,9,9*%
%TO.N,unconnected-(J2-Pad9)*%
X181869669Y-105745000D03*
%TD*%
D10*
%TO.P,C3,1*%
%TO.N,Net-(U2-C1+)*%
X150919669Y-94520331D03*
D11*
%TO.P,C3,2*%
%TO.N,Net-(U2-C1-)*%
X150919669Y-97020331D03*
%TD*%
D13*
%TO.P,D1,1,K*%
%TO.N,Net-(D1-K)*%
X134620000Y-83820000D03*
D14*
%TO.P,D1,2,A*%
%TO.N,Net-(D1-A)*%
X132080000Y-83820000D03*
%TD*%
D11*
%TO.P,C1,1*%
%TO.N,Net-(U1-3V3OUT)*%
X143470000Y-89440331D03*
%TO.P,C1,2*%
%TO.N,Net-(J1-GND)*%
X138470000Y-89440331D03*
%TD*%
D13*
%TO.P,D3,1,K*%
%TO.N,Net-(D3-K)*%
X134620000Y-91440000D03*
D14*
%TO.P,D3,2,A*%
%TO.N,Net-(D3-A)*%
X132080000Y-91440000D03*
%TD*%
D10*
%TO.P,J1,1,VBUS*%
%TO.N,Net-(J1-VBUS)*%
X111987169Y-103390331D03*
D11*
%TO.P,J1,2,D-*%
%TO.N,Net-(J1-D-)*%
X111987169Y-100890331D03*
%TO.P,J1,3,D+*%
%TO.N,Net-(J1-D+)*%
X109987169Y-100890331D03*
%TO.P,J1,4,GND*%
%TO.N,Net-(J1-GND)*%
X109987169Y-103390331D03*
D15*
%TO.P,J1,5,Shield*%
X107127169Y-108140331D03*
X107127169Y-96140331D03*
%TD*%
D11*
%TO.P,R2,1*%
%TO.N,Net-(J1-VBUS)*%
X119380000Y-107950000D03*
D16*
%TO.P,R2,2*%
%TO.N,Net-(D1-A)*%
X119380000Y-97790000D03*
%TD*%
D11*
%TO.P,C7,1*%
%TO.N,Net-(J1-VBUS)*%
X147320000Y-91440000D03*
%TO.P,C7,2*%
%TO.N,Net-(J1-GND)*%
X147320000Y-86440000D03*
%TD*%
%TO.P,C2,1*%
%TO.N,Net-(J1-VBUS)*%
X136719669Y-109760331D03*
%TO.P,C2,2*%
%TO.N,Net-(J1-GND)*%
X141719669Y-109760331D03*
%TD*%
D10*
%TO.P,C6,1*%
%TO.N,Net-(U2-VS+)*%
X159579669Y-86360000D03*
D11*
%TO.P,C6,2*%
%TO.N,Net-(J1-VBUS)*%
X162079669Y-86360000D03*
%TD*%
D12*
%TO.P,REF\u002A\u002A,1*%
%TO.N,N/C*%
X185420000Y-124460000D03*
%TD*%
D10*
%TO.P,C5,1*%
%TO.N,Net-(J1-GND)*%
X164659669Y-117380331D03*
D11*
%TO.P,C5,2*%
%TO.N,Net-(U2-VS-)*%
X162159669Y-117380331D03*
%TD*%
D12*
%TO.P,REF\u002A\u002A,1*%
%TO.N,N/C*%
X104140000Y-78740000D03*
%TD*%
D10*
%TO.P,U2,1,C1+*%
%TO.N,Net-(U2-C1+)*%
X157279669Y-93265331D03*
D16*
%TO.P,U2,2,VS+*%
%TO.N,Net-(U2-VS+)*%
X157279669Y-95805331D03*
%TO.P,U2,3,C1-*%
%TO.N,Net-(U2-C1-)*%
X157279669Y-98345331D03*
%TO.P,U2,4,C2+*%
%TO.N,Net-(U2-C2+)*%
X157279669Y-100885331D03*
%TO.P,U2,5,C2-*%
%TO.N,Net-(U2-C2-)*%
X157279669Y-103425331D03*
%TO.P,U2,6,VS-*%
%TO.N,Net-(U2-VS-)*%
X157279669Y-105965331D03*
%TO.P,U2,7,T2OUT*%
%TO.N,unconnected-(U2-T2OUT-Pad7)*%
X157279669Y-108505331D03*
%TO.P,U2,8,R2IN*%
%TO.N,Net-(J1-GND)*%
X157279669Y-111045331D03*
%TO.P,U2,9,R2OUT*%
%TO.N,unconnected-(U2-R2OUT-Pad9)*%
X164899669Y-111045331D03*
%TO.P,U2,10,T2IN*%
%TO.N,Net-(J1-GND)*%
X164899669Y-108505331D03*
%TO.P,U2,11,T1IN*%
%TO.N,Net-(U1-TXD)*%
X164899669Y-105965331D03*
%TO.P,U2,12,R1OUT*%
%TO.N,Net-(U1-RXD)*%
X164899669Y-103425331D03*
%TO.P,U2,13,R1IN*%
%TO.N,Net-(U2-R1IN)*%
X164899669Y-100885331D03*
%TO.P,U2,14,T1OUT*%
%TO.N,Net-(U2-T1OUT)*%
X164899669Y-98345331D03*
%TO.P,U2,15,GND*%
%TO.N,Net-(J1-GND)*%
X164899669Y-95805331D03*
%TO.P,U2,16,VCC*%
%TO.N,Net-(J1-VBUS)*%
X164899669Y-93265331D03*
%TD*%
D12*
%TO.P,REF\u002A\u002A,1*%
%TO.N,N/C*%
X104140000Y-124460000D03*
%TD*%
D11*
%TO.P,R1,1*%
%TO.N,Net-(J1-VBUS)*%
X127000000Y-107950000D03*
D16*
%TO.P,R1,2*%
%TO.N,Net-(D3-A)*%
X127000000Y-97790000D03*
%TD*%
D17*
%TO.P,U1,1,TXD*%
%TO.N,Net-(U1-TXD)*%
X134259669Y-104260331D03*
%TO.P,U1,2,DTR*%
%TO.N,unconnected-(U1-DTR-Pad2)*%
X134909669Y-104260331D03*
%TO.P,U1,3,RTS*%
%TO.N,unconnected-(U1-RTS-Pad3)*%
X135559669Y-104260331D03*
%TO.P,U1,4,VCCIO*%
%TO.N,Net-(J1-VBUS)*%
X136209669Y-104260331D03*
%TO.P,U1,5,RXD*%
%TO.N,Net-(U1-RXD)*%
X136859669Y-104260331D03*
%TO.P,U1,6,RI*%
%TO.N,unconnected-(U1-RI-Pad6)*%
X137509669Y-104260331D03*
%TO.P,U1,7,GND*%
%TO.N,Net-(J1-GND)*%
X138159669Y-104260331D03*
%TO.P,U1,8*%
%TO.N,N/C*%
X138809669Y-104260331D03*
%TO.P,U1,9,DCR*%
%TO.N,unconnected-(U1-DCR-Pad9)*%
X139459669Y-104260331D03*
%TO.P,U1,10,DCD*%
%TO.N,unconnected-(U1-DCD-Pad10)*%
X140109669Y-104260331D03*
%TO.P,U1,11,CTS*%
%TO.N,unconnected-(U1-CTS-Pad11)*%
X140759669Y-104260331D03*
%TO.P,U1,12,CBUS4*%
%TO.N,unconnected-(U1-CBUS4-Pad12)*%
X141409669Y-104260331D03*
%TO.P,U1,13,CBUS2*%
%TO.N,unconnected-(U1-CBUS2-Pad13)*%
X142059669Y-104260331D03*
%TO.P,U1,14,CBUS3*%
%TO.N,unconnected-(U1-CBUS3-Pad14)*%
X142709669Y-104260331D03*
%TO.P,U1,15,USBD+*%
%TO.N,Net-(J1-D+)*%
X142709669Y-97060331D03*
%TO.P,U1,16,USBD-*%
%TO.N,Net-(J1-D-)*%
X142059669Y-97060331D03*
%TO.P,U1,17,3V3OUT*%
%TO.N,Net-(U1-3V3OUT)*%
X141409669Y-97060331D03*
%TO.P,U1,18,GND*%
%TO.N,Net-(J1-GND)*%
X140759669Y-97060331D03*
%TO.P,U1,19,~{RESET}*%
%TO.N,Net-(J1-VBUS)*%
X140109669Y-97060331D03*
%TO.P,U1,20,VCC*%
X139459669Y-97060331D03*
%TO.P,U1,21,GND*%
%TO.N,Net-(J1-GND)*%
X138809669Y-97060331D03*
%TO.P,U1,22,CBUS1*%
%TO.N,Net-(D1-K)*%
X138159669Y-97060331D03*
%TO.P,U1,23,CBUS0*%
%TO.N,Net-(D3-K)*%
X137509669Y-97060331D03*
%TO.P,U1,24*%
%TO.N,N/C*%
X136859669Y-97060331D03*
%TO.P,U1,25,AGND*%
%TO.N,Net-(J1-GND)*%
X136209669Y-97060331D03*
%TO.P,U1,26,TEST*%
%TO.N,unconnected-(U1-TEST-Pad26)*%
X135559669Y-97060331D03*
%TO.P,U1,27,OSCI*%
%TO.N,unconnected-(U1-OSCI-Pad27)*%
X134909669Y-97060331D03*
%TO.P,U1,28,OSCO*%
%TO.N,unconnected-(U1-OSCO-Pad28)*%
X134259669Y-97060331D03*
%TD*%
D18*
%TO.N,Net-(J1-GND)*%
X144780000Y-104140000D03*
X144780000Y-109220000D03*
%TD*%
D19*
%TO.N,Net-(J1-VBUS)*%
X133709669Y-105460331D02*
X136134669Y-105460331D01*
X135889669Y-100440331D02*
X133294669Y-97845331D01*
X108862169Y-101356322D02*
X109646178Y-102140331D01*
X146254669Y-102425331D02*
X134333273Y-102425331D01*
X127000000Y-107950000D02*
X128810331Y-109760331D01*
X111578160Y-103390331D02*
X110328160Y-102140331D01*
X136209669Y-105385331D02*
X136209669Y-104260331D01*
X147320000Y-91440000D02*
X147320000Y-101360000D01*
X119380000Y-107950000D02*
X127000000Y-107950000D01*
X113550331Y-103390331D02*
X114300000Y-104140000D01*
X139459669Y-97060331D02*
X139459669Y-98185331D01*
X108862169Y-100283935D02*
X108862169Y-101356322D01*
X111987169Y-103390331D02*
X111578160Y-103390331D01*
X136209669Y-109250331D02*
X136719669Y-109760331D01*
X133395000Y-81730000D02*
X127416104Y-81730000D01*
X136209669Y-105385331D02*
X136209669Y-109250331D01*
X136719669Y-109760331D02*
X128810331Y-109760331D01*
X127416104Y-81730000D02*
X108862169Y-100283935D01*
X109646178Y-102140331D02*
X110328160Y-102140331D01*
X147200000Y-101480000D02*
X146254669Y-102425331D01*
X133294669Y-97845331D02*
X133305000Y-97835000D01*
X134333273Y-102425331D02*
X133709669Y-103048935D01*
X149164669Y-99515331D02*
X147200000Y-101480000D01*
X111987169Y-103390331D02*
X113550331Y-103390331D01*
X162079669Y-86360000D02*
X162079669Y-90445331D01*
X133305000Y-97835000D02*
X133305000Y-87065662D01*
X133709669Y-103048935D02*
X133709669Y-105460331D01*
X136134669Y-105460331D02*
X136209669Y-105385331D01*
X133305000Y-87065662D02*
X133395000Y-86975662D01*
X114300000Y-104140000D02*
X115570000Y-104140000D01*
X139459669Y-97060331D02*
X140109669Y-97060331D01*
X133395000Y-86975662D02*
X133395000Y-81730000D01*
X115570000Y-104140000D02*
X119380000Y-107950000D01*
X164899669Y-93265331D02*
X158649669Y-99515331D01*
X139459669Y-98185331D02*
X137204669Y-100440331D01*
X162079669Y-90445331D02*
X164899669Y-93265331D01*
X137204669Y-100440331D02*
X135889669Y-100440331D01*
X147320000Y-101360000D02*
X147200000Y-101480000D01*
X158649669Y-99515331D02*
X149164669Y-99515331D01*
%TO.N,Net-(J1-GND)*%
X179725000Y-97175000D02*
X180744669Y-98194669D01*
X107739669Y-101142831D02*
X107739669Y-99600331D01*
X138470000Y-82590000D02*
X139239669Y-81820331D01*
X144780000Y-104140000D02*
X143459669Y-105460331D01*
X136284669Y-98260331D02*
X138734669Y-98260331D01*
X136528197Y-112300331D02*
X139068197Y-109760331D01*
X136528197Y-112300331D02*
X117765799Y-112300331D01*
X174910000Y-107130000D02*
X164659669Y-117380331D01*
X139068197Y-109760331D02*
X141719669Y-109760331D01*
X138809669Y-89780000D02*
X138809669Y-95250000D01*
X162359669Y-111045331D02*
X164659669Y-113345331D01*
X166024669Y-87997183D02*
X166024669Y-94680331D01*
X107739669Y-99600331D02*
X126060000Y-81280000D01*
X136209669Y-97060331D02*
X136209669Y-98185331D01*
X107127169Y-99060000D02*
X107127169Y-108140331D01*
X174910000Y-107130000D02*
X179329669Y-107130000D01*
X107127169Y-96140331D02*
X107127169Y-99060000D01*
X147320000Y-81820331D02*
X159847817Y-81820331D01*
X144239669Y-109760331D02*
X141719669Y-109760331D01*
X180744669Y-98194669D02*
X180744669Y-105715000D01*
X164899669Y-95805331D02*
X174434009Y-95805331D01*
X174434009Y-95805331D02*
X175803678Y-97175000D01*
X139239669Y-81820331D02*
X147320000Y-81820331D01*
X138259669Y-105460331D02*
X138159669Y-105360331D01*
X162359669Y-111045331D02*
X164899669Y-108505331D01*
X140074338Y-95250000D02*
X138809669Y-95250000D01*
X147320000Y-81820331D02*
X147320000Y-86440000D01*
X117765799Y-112300331D02*
X109987169Y-104521701D01*
X107739669Y-99600331D02*
X107667500Y-99600331D01*
X175803678Y-97175000D02*
X179725000Y-97175000D01*
X159847817Y-81820331D02*
X166024669Y-87997183D01*
X138809669Y-98185331D02*
X138809669Y-97060331D01*
X136209669Y-98185331D02*
X136284669Y-98260331D01*
X107667500Y-99600331D02*
X107127169Y-99060000D01*
X138734669Y-98260331D02*
X138809669Y-98185331D01*
X109987169Y-103390331D02*
X107739669Y-101142831D01*
X109987169Y-104521701D02*
X109987169Y-103390331D01*
X126060000Y-81280000D02*
X137160000Y-81280000D01*
X144780000Y-109220000D02*
X144239669Y-109760331D01*
X140759669Y-95935331D02*
X140074338Y-95250000D01*
X138809669Y-95250000D02*
X138809669Y-97060331D01*
X164659669Y-113345331D02*
X164659669Y-117380331D01*
X138470000Y-89440331D02*
X138809669Y-89780000D01*
X138470000Y-82590000D02*
X138470000Y-89440331D01*
X138159669Y-105360331D02*
X138159669Y-104260331D01*
X157279669Y-111045331D02*
X162359669Y-111045331D01*
X140759669Y-97060331D02*
X140759669Y-95935331D01*
X143459669Y-105460331D02*
X138259669Y-105460331D01*
X180744669Y-105715000D02*
X179329669Y-107130000D01*
X166024669Y-94680331D02*
X164899669Y-95805331D01*
X137160000Y-81280000D02*
X138470000Y-82590000D01*
%TO.N,Net-(U1-3V3OUT)*%
X141409669Y-91500662D02*
X141409669Y-97060331D01*
X143470000Y-89440331D02*
X141409669Y-91500662D01*
%TO.N,Net-(U2-C1+)*%
X150919669Y-94520331D02*
X156024669Y-94520331D01*
X156024669Y-94520331D02*
X157279669Y-93265331D01*
%TO.N,Net-(U2-C1-)*%
X152244669Y-98345331D02*
X157279669Y-98345331D01*
X150919669Y-97020331D02*
X152244669Y-98345331D01*
%TO.N,Net-(U2-C2+)*%
X157034669Y-100640331D02*
X157279669Y-100885331D01*
X150919669Y-100640331D02*
X157034669Y-100640331D01*
%TO.N,Net-(U2-C2-)*%
X150919669Y-103140331D02*
X156994669Y-103140331D01*
X156994669Y-103140331D02*
X157279669Y-103425331D01*
%TO.N,Net-(U2-VS+)*%
X159579669Y-93505331D02*
X159579669Y-86360000D01*
X159579669Y-93505331D02*
X157279669Y-95805331D01*
%TO.N,Net-(D1-K)*%
X138219669Y-91980331D02*
X138219669Y-97060331D01*
X138219669Y-97060331D02*
X138159669Y-97060331D01*
X134620000Y-88380662D02*
X134620000Y-83820000D01*
X138219669Y-91980331D02*
X134620000Y-88380662D01*
%TO.N,Net-(D1-A)*%
X119380000Y-96520000D02*
X119380000Y-97790000D01*
X132080000Y-83820000D02*
X119380000Y-96520000D01*
%TO.N,Net-(J1-D-)*%
X142059669Y-97060331D02*
X142059669Y-98160331D01*
X139329669Y-100890331D02*
X111987169Y-100890331D01*
X142059669Y-98160331D02*
X139329669Y-100890331D01*
%TO.N,Net-(J1-D+)*%
X109987169Y-100890331D02*
X111237169Y-102140331D01*
X111237169Y-102140331D02*
X119808678Y-102140331D01*
X119808678Y-102140331D02*
X119973678Y-101975331D01*
X119973678Y-101975331D02*
X138894669Y-101975331D01*
X138894669Y-101975331D02*
X142709669Y-98160331D01*
X142709669Y-98160331D02*
X142709669Y-97060331D01*
%TO.N,Net-(U2-R1IN)*%
X175190000Y-97220331D02*
X176789669Y-98820000D01*
X163774669Y-97879340D02*
X164433678Y-97220331D01*
X163774669Y-99760331D02*
X163774669Y-97879340D01*
X164899669Y-100885331D02*
X163774669Y-99760331D01*
X164433678Y-97220331D02*
X175190000Y-97220331D01*
X176789669Y-98820000D02*
X179329669Y-98820000D01*
%TO.N,Net-(U1-RXD)*%
X166024669Y-106431322D02*
X165235660Y-107220331D01*
X165235660Y-107220331D02*
X138519669Y-107220331D01*
X166024669Y-104550331D02*
X166024669Y-106431322D01*
X138519669Y-107220331D02*
X136859669Y-105560331D01*
X136859669Y-105560331D02*
X136859669Y-104260331D01*
X164899669Y-103425331D02*
X166024669Y-104550331D01*
%TO.N,Net-(U1-TXD)*%
X163774669Y-104840331D02*
X164899669Y-105965331D01*
X134259669Y-103135331D02*
X134519669Y-102875331D01*
X134259669Y-104260331D02*
X134259669Y-103135331D01*
X134519669Y-102875331D02*
X147850000Y-102875331D01*
X147850000Y-102875331D02*
X149815000Y-104840331D01*
X149815000Y-104840331D02*
X163774669Y-104840331D01*
%TO.N,Net-(U2-T1OUT)*%
X168144338Y-101590000D02*
X179329669Y-101590000D01*
X168144338Y-101590000D02*
X164899669Y-98345331D01*
%TO.N,Net-(D3-K)*%
X134620000Y-91440000D02*
X137509669Y-94329669D01*
X137509669Y-94329669D02*
X137509669Y-97060331D01*
%TO.N,Net-(D3-A)*%
X127000000Y-97790000D02*
X127000000Y-96520000D01*
X127000000Y-96520000D02*
X132080000Y-91440000D01*
%TD*%
M02*
