%TF.GenerationSoftware,KiCad,Pcbnew,7.0.1*%
%TF.CreationDate,2023-04-09T16:17:14+09:00*%
%TF.ProjectId,RS232_Converter,52533233-325f-4436-9f6e-766572746572,rev?*%
%TF.SameCoordinates,Original*%
%TF.FileFunction,Legend,Top*%
%TF.FilePolarity,Positive*%
%FSLAX46Y46*%
G04 Gerber Fmt 4.6, Leading zero omitted, Abs format (unit mm)*
G04 Created by KiCad (PCBNEW 7.0.1) date 2023-04-09 16:17:14*
%MOMM*%
%LPD*%
G01*
G04 APERTURE LIST*
%ADD10C,0.150000*%
%ADD11C,0.120000*%
G04 APERTURE END LIST*
D10*
X132318095Y-105192380D02*
X132365714Y-105240000D01*
X132365714Y-105240000D02*
X132318095Y-105287619D01*
X132318095Y-105287619D02*
X132270476Y-105240000D01*
X132270476Y-105240000D02*
X132318095Y-105192380D01*
X132318095Y-105192380D02*
X132318095Y-105287619D01*
X106918095Y-119177619D02*
X106918095Y-119987142D01*
X106918095Y-119987142D02*
X106965714Y-120082380D01*
X106965714Y-120082380D02*
X107013333Y-120130000D01*
X107013333Y-120130000D02*
X107108571Y-120177619D01*
X107108571Y-120177619D02*
X107299047Y-120177619D01*
X107299047Y-120177619D02*
X107394285Y-120130000D01*
X107394285Y-120130000D02*
X107441904Y-120082380D01*
X107441904Y-120082380D02*
X107489523Y-119987142D01*
X107489523Y-119987142D02*
X107489523Y-119177619D01*
X107918095Y-120130000D02*
X108060952Y-120177619D01*
X108060952Y-120177619D02*
X108299047Y-120177619D01*
X108299047Y-120177619D02*
X108394285Y-120130000D01*
X108394285Y-120130000D02*
X108441904Y-120082380D01*
X108441904Y-120082380D02*
X108489523Y-119987142D01*
X108489523Y-119987142D02*
X108489523Y-119891904D01*
X108489523Y-119891904D02*
X108441904Y-119796666D01*
X108441904Y-119796666D02*
X108394285Y-119749047D01*
X108394285Y-119749047D02*
X108299047Y-119701428D01*
X108299047Y-119701428D02*
X108108571Y-119653809D01*
X108108571Y-119653809D02*
X108013333Y-119606190D01*
X108013333Y-119606190D02*
X107965714Y-119558571D01*
X107965714Y-119558571D02*
X107918095Y-119463333D01*
X107918095Y-119463333D02*
X107918095Y-119368095D01*
X107918095Y-119368095D02*
X107965714Y-119272857D01*
X107965714Y-119272857D02*
X108013333Y-119225238D01*
X108013333Y-119225238D02*
X108108571Y-119177619D01*
X108108571Y-119177619D02*
X108346666Y-119177619D01*
X108346666Y-119177619D02*
X108489523Y-119225238D01*
X109251428Y-119653809D02*
X109394285Y-119701428D01*
X109394285Y-119701428D02*
X109441904Y-119749047D01*
X109441904Y-119749047D02*
X109489523Y-119844285D01*
X109489523Y-119844285D02*
X109489523Y-119987142D01*
X109489523Y-119987142D02*
X109441904Y-120082380D01*
X109441904Y-120082380D02*
X109394285Y-120130000D01*
X109394285Y-120130000D02*
X109299047Y-120177619D01*
X109299047Y-120177619D02*
X108918095Y-120177619D01*
X108918095Y-120177619D02*
X108918095Y-119177619D01*
X108918095Y-119177619D02*
X109251428Y-119177619D01*
X109251428Y-119177619D02*
X109346666Y-119225238D01*
X109346666Y-119225238D02*
X109394285Y-119272857D01*
X109394285Y-119272857D02*
X109441904Y-119368095D01*
X109441904Y-119368095D02*
X109441904Y-119463333D01*
X109441904Y-119463333D02*
X109394285Y-119558571D01*
X109394285Y-119558571D02*
X109346666Y-119606190D01*
X109346666Y-119606190D02*
X109251428Y-119653809D01*
X109251428Y-119653809D02*
X108918095Y-119653809D01*
X110537143Y-119510952D02*
X110918095Y-119510952D01*
X110680000Y-119177619D02*
X110680000Y-120034761D01*
X110680000Y-120034761D02*
X110727619Y-120130000D01*
X110727619Y-120130000D02*
X110822857Y-120177619D01*
X110822857Y-120177619D02*
X110918095Y-120177619D01*
X111394286Y-120177619D02*
X111299048Y-120130000D01*
X111299048Y-120130000D02*
X111251429Y-120082380D01*
X111251429Y-120082380D02*
X111203810Y-119987142D01*
X111203810Y-119987142D02*
X111203810Y-119701428D01*
X111203810Y-119701428D02*
X111251429Y-119606190D01*
X111251429Y-119606190D02*
X111299048Y-119558571D01*
X111299048Y-119558571D02*
X111394286Y-119510952D01*
X111394286Y-119510952D02*
X111537143Y-119510952D01*
X111537143Y-119510952D02*
X111632381Y-119558571D01*
X111632381Y-119558571D02*
X111680000Y-119606190D01*
X111680000Y-119606190D02*
X111727619Y-119701428D01*
X111727619Y-119701428D02*
X111727619Y-119987142D01*
X111727619Y-119987142D02*
X111680000Y-120082380D01*
X111680000Y-120082380D02*
X111632381Y-120130000D01*
X111632381Y-120130000D02*
X111537143Y-120177619D01*
X111537143Y-120177619D02*
X111394286Y-120177619D01*
X113489524Y-120177619D02*
X113156191Y-119701428D01*
X112918096Y-120177619D02*
X112918096Y-119177619D01*
X112918096Y-119177619D02*
X113299048Y-119177619D01*
X113299048Y-119177619D02*
X113394286Y-119225238D01*
X113394286Y-119225238D02*
X113441905Y-119272857D01*
X113441905Y-119272857D02*
X113489524Y-119368095D01*
X113489524Y-119368095D02*
X113489524Y-119510952D01*
X113489524Y-119510952D02*
X113441905Y-119606190D01*
X113441905Y-119606190D02*
X113394286Y-119653809D01*
X113394286Y-119653809D02*
X113299048Y-119701428D01*
X113299048Y-119701428D02*
X112918096Y-119701428D01*
X113870477Y-120130000D02*
X114013334Y-120177619D01*
X114013334Y-120177619D02*
X114251429Y-120177619D01*
X114251429Y-120177619D02*
X114346667Y-120130000D01*
X114346667Y-120130000D02*
X114394286Y-120082380D01*
X114394286Y-120082380D02*
X114441905Y-119987142D01*
X114441905Y-119987142D02*
X114441905Y-119891904D01*
X114441905Y-119891904D02*
X114394286Y-119796666D01*
X114394286Y-119796666D02*
X114346667Y-119749047D01*
X114346667Y-119749047D02*
X114251429Y-119701428D01*
X114251429Y-119701428D02*
X114060953Y-119653809D01*
X114060953Y-119653809D02*
X113965715Y-119606190D01*
X113965715Y-119606190D02*
X113918096Y-119558571D01*
X113918096Y-119558571D02*
X113870477Y-119463333D01*
X113870477Y-119463333D02*
X113870477Y-119368095D01*
X113870477Y-119368095D02*
X113918096Y-119272857D01*
X113918096Y-119272857D02*
X113965715Y-119225238D01*
X113965715Y-119225238D02*
X114060953Y-119177619D01*
X114060953Y-119177619D02*
X114299048Y-119177619D01*
X114299048Y-119177619D02*
X114441905Y-119225238D01*
X114822858Y-119272857D02*
X114870477Y-119225238D01*
X114870477Y-119225238D02*
X114965715Y-119177619D01*
X114965715Y-119177619D02*
X115203810Y-119177619D01*
X115203810Y-119177619D02*
X115299048Y-119225238D01*
X115299048Y-119225238D02*
X115346667Y-119272857D01*
X115346667Y-119272857D02*
X115394286Y-119368095D01*
X115394286Y-119368095D02*
X115394286Y-119463333D01*
X115394286Y-119463333D02*
X115346667Y-119606190D01*
X115346667Y-119606190D02*
X114775239Y-120177619D01*
X114775239Y-120177619D02*
X115394286Y-120177619D01*
X115727620Y-119177619D02*
X116346667Y-119177619D01*
X116346667Y-119177619D02*
X116013334Y-119558571D01*
X116013334Y-119558571D02*
X116156191Y-119558571D01*
X116156191Y-119558571D02*
X116251429Y-119606190D01*
X116251429Y-119606190D02*
X116299048Y-119653809D01*
X116299048Y-119653809D02*
X116346667Y-119749047D01*
X116346667Y-119749047D02*
X116346667Y-119987142D01*
X116346667Y-119987142D02*
X116299048Y-120082380D01*
X116299048Y-120082380D02*
X116251429Y-120130000D01*
X116251429Y-120130000D02*
X116156191Y-120177619D01*
X116156191Y-120177619D02*
X115870477Y-120177619D01*
X115870477Y-120177619D02*
X115775239Y-120130000D01*
X115775239Y-120130000D02*
X115727620Y-120082380D01*
X116727620Y-119272857D02*
X116775239Y-119225238D01*
X116775239Y-119225238D02*
X116870477Y-119177619D01*
X116870477Y-119177619D02*
X117108572Y-119177619D01*
X117108572Y-119177619D02*
X117203810Y-119225238D01*
X117203810Y-119225238D02*
X117251429Y-119272857D01*
X117251429Y-119272857D02*
X117299048Y-119368095D01*
X117299048Y-119368095D02*
X117299048Y-119463333D01*
X117299048Y-119463333D02*
X117251429Y-119606190D01*
X117251429Y-119606190D02*
X116680001Y-120177619D01*
X116680001Y-120177619D02*
X117299048Y-120177619D01*
X118918096Y-120130000D02*
X118822858Y-120177619D01*
X118822858Y-120177619D02*
X118632382Y-120177619D01*
X118632382Y-120177619D02*
X118537144Y-120130000D01*
X118537144Y-120130000D02*
X118489525Y-120082380D01*
X118489525Y-120082380D02*
X118441906Y-119987142D01*
X118441906Y-119987142D02*
X118441906Y-119701428D01*
X118441906Y-119701428D02*
X118489525Y-119606190D01*
X118489525Y-119606190D02*
X118537144Y-119558571D01*
X118537144Y-119558571D02*
X118632382Y-119510952D01*
X118632382Y-119510952D02*
X118822858Y-119510952D01*
X118822858Y-119510952D02*
X118918096Y-119558571D01*
X119489525Y-120177619D02*
X119394287Y-120130000D01*
X119394287Y-120130000D02*
X119346668Y-120082380D01*
X119346668Y-120082380D02*
X119299049Y-119987142D01*
X119299049Y-119987142D02*
X119299049Y-119701428D01*
X119299049Y-119701428D02*
X119346668Y-119606190D01*
X119346668Y-119606190D02*
X119394287Y-119558571D01*
X119394287Y-119558571D02*
X119489525Y-119510952D01*
X119489525Y-119510952D02*
X119632382Y-119510952D01*
X119632382Y-119510952D02*
X119727620Y-119558571D01*
X119727620Y-119558571D02*
X119775239Y-119606190D01*
X119775239Y-119606190D02*
X119822858Y-119701428D01*
X119822858Y-119701428D02*
X119822858Y-119987142D01*
X119822858Y-119987142D02*
X119775239Y-120082380D01*
X119775239Y-120082380D02*
X119727620Y-120130000D01*
X119727620Y-120130000D02*
X119632382Y-120177619D01*
X119632382Y-120177619D02*
X119489525Y-120177619D01*
X120251430Y-119510952D02*
X120251430Y-120177619D01*
X120251430Y-119606190D02*
X120299049Y-119558571D01*
X120299049Y-119558571D02*
X120394287Y-119510952D01*
X120394287Y-119510952D02*
X120537144Y-119510952D01*
X120537144Y-119510952D02*
X120632382Y-119558571D01*
X120632382Y-119558571D02*
X120680001Y-119653809D01*
X120680001Y-119653809D02*
X120680001Y-120177619D01*
X121060954Y-119510952D02*
X121299049Y-120177619D01*
X121299049Y-120177619D02*
X121537144Y-119510952D01*
X122299049Y-120130000D02*
X122203811Y-120177619D01*
X122203811Y-120177619D02*
X122013335Y-120177619D01*
X122013335Y-120177619D02*
X121918097Y-120130000D01*
X121918097Y-120130000D02*
X121870478Y-120034761D01*
X121870478Y-120034761D02*
X121870478Y-119653809D01*
X121870478Y-119653809D02*
X121918097Y-119558571D01*
X121918097Y-119558571D02*
X122013335Y-119510952D01*
X122013335Y-119510952D02*
X122203811Y-119510952D01*
X122203811Y-119510952D02*
X122299049Y-119558571D01*
X122299049Y-119558571D02*
X122346668Y-119653809D01*
X122346668Y-119653809D02*
X122346668Y-119749047D01*
X122346668Y-119749047D02*
X121870478Y-119844285D01*
X122775240Y-120177619D02*
X122775240Y-119510952D01*
X122775240Y-119701428D02*
X122822859Y-119606190D01*
X122822859Y-119606190D02*
X122870478Y-119558571D01*
X122870478Y-119558571D02*
X122965716Y-119510952D01*
X122965716Y-119510952D02*
X123060954Y-119510952D01*
X123251431Y-119510952D02*
X123632383Y-119510952D01*
X123394288Y-119177619D02*
X123394288Y-120034761D01*
X123394288Y-120034761D02*
X123441907Y-120130000D01*
X123441907Y-120130000D02*
X123537145Y-120177619D01*
X123537145Y-120177619D02*
X123632383Y-120177619D01*
X124346669Y-120130000D02*
X124251431Y-120177619D01*
X124251431Y-120177619D02*
X124060955Y-120177619D01*
X124060955Y-120177619D02*
X123965717Y-120130000D01*
X123965717Y-120130000D02*
X123918098Y-120034761D01*
X123918098Y-120034761D02*
X123918098Y-119653809D01*
X123918098Y-119653809D02*
X123965717Y-119558571D01*
X123965717Y-119558571D02*
X124060955Y-119510952D01*
X124060955Y-119510952D02*
X124251431Y-119510952D01*
X124251431Y-119510952D02*
X124346669Y-119558571D01*
X124346669Y-119558571D02*
X124394288Y-119653809D01*
X124394288Y-119653809D02*
X124394288Y-119749047D01*
X124394288Y-119749047D02*
X123918098Y-119844285D01*
X124822860Y-120177619D02*
X124822860Y-119510952D01*
X124822860Y-119701428D02*
X124870479Y-119606190D01*
X124870479Y-119606190D02*
X124918098Y-119558571D01*
X124918098Y-119558571D02*
X125013336Y-119510952D01*
X125013336Y-119510952D02*
X125108574Y-119510952D01*
X107203809Y-120797619D02*
X107203809Y-121511904D01*
X107203809Y-121511904D02*
X107156190Y-121654761D01*
X107156190Y-121654761D02*
X107060952Y-121750000D01*
X107060952Y-121750000D02*
X106918095Y-121797619D01*
X106918095Y-121797619D02*
X106822857Y-121797619D01*
X107822857Y-121797619D02*
X107727619Y-121750000D01*
X107727619Y-121750000D02*
X107680000Y-121702380D01*
X107680000Y-121702380D02*
X107632381Y-121607142D01*
X107632381Y-121607142D02*
X107632381Y-121321428D01*
X107632381Y-121321428D02*
X107680000Y-121226190D01*
X107680000Y-121226190D02*
X107727619Y-121178571D01*
X107727619Y-121178571D02*
X107822857Y-121130952D01*
X107822857Y-121130952D02*
X107965714Y-121130952D01*
X107965714Y-121130952D02*
X108060952Y-121178571D01*
X108060952Y-121178571D02*
X108108571Y-121226190D01*
X108108571Y-121226190D02*
X108156190Y-121321428D01*
X108156190Y-121321428D02*
X108156190Y-121607142D01*
X108156190Y-121607142D02*
X108108571Y-121702380D01*
X108108571Y-121702380D02*
X108060952Y-121750000D01*
X108060952Y-121750000D02*
X107965714Y-121797619D01*
X107965714Y-121797619D02*
X107822857Y-121797619D01*
X108584762Y-121130952D02*
X108584762Y-121797619D01*
X108584762Y-121226190D02*
X108632381Y-121178571D01*
X108632381Y-121178571D02*
X108727619Y-121130952D01*
X108727619Y-121130952D02*
X108870476Y-121130952D01*
X108870476Y-121130952D02*
X108965714Y-121178571D01*
X108965714Y-121178571D02*
X109013333Y-121273809D01*
X109013333Y-121273809D02*
X109013333Y-121797619D01*
X109918095Y-121130952D02*
X109918095Y-121940476D01*
X109918095Y-121940476D02*
X109870476Y-122035714D01*
X109870476Y-122035714D02*
X109822857Y-122083333D01*
X109822857Y-122083333D02*
X109727619Y-122130952D01*
X109727619Y-122130952D02*
X109584762Y-122130952D01*
X109584762Y-122130952D02*
X109489524Y-122083333D01*
X109918095Y-121750000D02*
X109822857Y-121797619D01*
X109822857Y-121797619D02*
X109632381Y-121797619D01*
X109632381Y-121797619D02*
X109537143Y-121750000D01*
X109537143Y-121750000D02*
X109489524Y-121702380D01*
X109489524Y-121702380D02*
X109441905Y-121607142D01*
X109441905Y-121607142D02*
X109441905Y-121321428D01*
X109441905Y-121321428D02*
X109489524Y-121226190D01*
X109489524Y-121226190D02*
X109537143Y-121178571D01*
X109537143Y-121178571D02*
X109632381Y-121130952D01*
X109632381Y-121130952D02*
X109822857Y-121130952D01*
X109822857Y-121130952D02*
X109918095Y-121178571D01*
X110394286Y-121797619D02*
X110394286Y-120797619D01*
X110822857Y-121797619D02*
X110822857Y-121273809D01*
X110822857Y-121273809D02*
X110775238Y-121178571D01*
X110775238Y-121178571D02*
X110680000Y-121130952D01*
X110680000Y-121130952D02*
X110537143Y-121130952D01*
X110537143Y-121130952D02*
X110441905Y-121178571D01*
X110441905Y-121178571D02*
X110394286Y-121226190D01*
X111680000Y-121750000D02*
X111584762Y-121797619D01*
X111584762Y-121797619D02*
X111394286Y-121797619D01*
X111394286Y-121797619D02*
X111299048Y-121750000D01*
X111299048Y-121750000D02*
X111251429Y-121654761D01*
X111251429Y-121654761D02*
X111251429Y-121273809D01*
X111251429Y-121273809D02*
X111299048Y-121178571D01*
X111299048Y-121178571D02*
X111394286Y-121130952D01*
X111394286Y-121130952D02*
X111584762Y-121130952D01*
X111584762Y-121130952D02*
X111680000Y-121178571D01*
X111680000Y-121178571D02*
X111727619Y-121273809D01*
X111727619Y-121273809D02*
X111727619Y-121369047D01*
X111727619Y-121369047D02*
X111251429Y-121464285D01*
X112537143Y-121750000D02*
X112441905Y-121797619D01*
X112441905Y-121797619D02*
X112251429Y-121797619D01*
X112251429Y-121797619D02*
X112156191Y-121750000D01*
X112156191Y-121750000D02*
X112108572Y-121654761D01*
X112108572Y-121654761D02*
X112108572Y-121273809D01*
X112108572Y-121273809D02*
X112156191Y-121178571D01*
X112156191Y-121178571D02*
X112251429Y-121130952D01*
X112251429Y-121130952D02*
X112441905Y-121130952D01*
X112441905Y-121130952D02*
X112537143Y-121178571D01*
X112537143Y-121178571D02*
X112584762Y-121273809D01*
X112584762Y-121273809D02*
X112584762Y-121369047D01*
X112584762Y-121369047D02*
X112108572Y-121464285D01*
X113727620Y-121750000D02*
X113870477Y-121797619D01*
X113870477Y-121797619D02*
X114108572Y-121797619D01*
X114108572Y-121797619D02*
X114203810Y-121750000D01*
X114203810Y-121750000D02*
X114251429Y-121702380D01*
X114251429Y-121702380D02*
X114299048Y-121607142D01*
X114299048Y-121607142D02*
X114299048Y-121511904D01*
X114299048Y-121511904D02*
X114251429Y-121416666D01*
X114251429Y-121416666D02*
X114203810Y-121369047D01*
X114203810Y-121369047D02*
X114108572Y-121321428D01*
X114108572Y-121321428D02*
X113918096Y-121273809D01*
X113918096Y-121273809D02*
X113822858Y-121226190D01*
X113822858Y-121226190D02*
X113775239Y-121178571D01*
X113775239Y-121178571D02*
X113727620Y-121083333D01*
X113727620Y-121083333D02*
X113727620Y-120988095D01*
X113727620Y-120988095D02*
X113775239Y-120892857D01*
X113775239Y-120892857D02*
X113822858Y-120845238D01*
X113822858Y-120845238D02*
X113918096Y-120797619D01*
X113918096Y-120797619D02*
X114156191Y-120797619D01*
X114156191Y-120797619D02*
X114299048Y-120845238D01*
X114870477Y-121797619D02*
X114775239Y-121750000D01*
X114775239Y-121750000D02*
X114727620Y-121702380D01*
X114727620Y-121702380D02*
X114680001Y-121607142D01*
X114680001Y-121607142D02*
X114680001Y-121321428D01*
X114680001Y-121321428D02*
X114727620Y-121226190D01*
X114727620Y-121226190D02*
X114775239Y-121178571D01*
X114775239Y-121178571D02*
X114870477Y-121130952D01*
X114870477Y-121130952D02*
X115013334Y-121130952D01*
X115013334Y-121130952D02*
X115108572Y-121178571D01*
X115108572Y-121178571D02*
X115156191Y-121226190D01*
X115156191Y-121226190D02*
X115203810Y-121321428D01*
X115203810Y-121321428D02*
X115203810Y-121607142D01*
X115203810Y-121607142D02*
X115156191Y-121702380D01*
X115156191Y-121702380D02*
X115108572Y-121750000D01*
X115108572Y-121750000D02*
X115013334Y-121797619D01*
X115013334Y-121797619D02*
X114870477Y-121797619D01*
X115632382Y-121130952D02*
X115632382Y-121797619D01*
X115632382Y-121226190D02*
X115680001Y-121178571D01*
X115680001Y-121178571D02*
X115775239Y-121130952D01*
X115775239Y-121130952D02*
X115918096Y-121130952D01*
X115918096Y-121130952D02*
X116013334Y-121178571D01*
X116013334Y-121178571D02*
X116060953Y-121273809D01*
X116060953Y-121273809D02*
X116060953Y-121797619D01*
X117584763Y-122130952D02*
X117346668Y-122130952D01*
X117346668Y-122130952D02*
X117346668Y-120702380D01*
X117346668Y-120702380D02*
X117584763Y-120702380D01*
X117965716Y-121130952D02*
X117965716Y-121988095D01*
X117965716Y-121988095D02*
X117918097Y-122083333D01*
X117918097Y-122083333D02*
X117822859Y-122130952D01*
X117822859Y-122130952D02*
X117775240Y-122130952D01*
X117965716Y-120797619D02*
X117918097Y-120845238D01*
X117918097Y-120845238D02*
X117965716Y-120892857D01*
X117965716Y-120892857D02*
X118013335Y-120845238D01*
X118013335Y-120845238D02*
X117965716Y-120797619D01*
X117965716Y-120797619D02*
X117965716Y-120892857D01*
X118441906Y-121797619D02*
X118441906Y-120797619D01*
X118870477Y-121797619D02*
X118870477Y-121273809D01*
X118870477Y-121273809D02*
X118822858Y-121178571D01*
X118822858Y-121178571D02*
X118727620Y-121130952D01*
X118727620Y-121130952D02*
X118584763Y-121130952D01*
X118584763Y-121130952D02*
X118489525Y-121178571D01*
X118489525Y-121178571D02*
X118441906Y-121226190D01*
X119299049Y-121750000D02*
X119394287Y-121797619D01*
X119394287Y-121797619D02*
X119584763Y-121797619D01*
X119584763Y-121797619D02*
X119680001Y-121750000D01*
X119680001Y-121750000D02*
X119727620Y-121654761D01*
X119727620Y-121654761D02*
X119727620Y-121607142D01*
X119727620Y-121607142D02*
X119680001Y-121511904D01*
X119680001Y-121511904D02*
X119584763Y-121464285D01*
X119584763Y-121464285D02*
X119441906Y-121464285D01*
X119441906Y-121464285D02*
X119346668Y-121416666D01*
X119346668Y-121416666D02*
X119299049Y-121321428D01*
X119299049Y-121321428D02*
X119299049Y-121273809D01*
X119299049Y-121273809D02*
X119346668Y-121178571D01*
X119346668Y-121178571D02*
X119441906Y-121130952D01*
X119441906Y-121130952D02*
X119584763Y-121130952D01*
X119584763Y-121130952D02*
X119680001Y-121178571D01*
X120299049Y-121797619D02*
X120203811Y-121750000D01*
X120203811Y-121750000D02*
X120156192Y-121702380D01*
X120156192Y-121702380D02*
X120108573Y-121607142D01*
X120108573Y-121607142D02*
X120108573Y-121321428D01*
X120108573Y-121321428D02*
X120156192Y-121226190D01*
X120156192Y-121226190D02*
X120203811Y-121178571D01*
X120203811Y-121178571D02*
X120299049Y-121130952D01*
X120299049Y-121130952D02*
X120441906Y-121130952D01*
X120441906Y-121130952D02*
X120537144Y-121178571D01*
X120537144Y-121178571D02*
X120584763Y-121226190D01*
X120584763Y-121226190D02*
X120632382Y-121321428D01*
X120632382Y-121321428D02*
X120632382Y-121607142D01*
X120632382Y-121607142D02*
X120584763Y-121702380D01*
X120584763Y-121702380D02*
X120537144Y-121750000D01*
X120537144Y-121750000D02*
X120441906Y-121797619D01*
X120441906Y-121797619D02*
X120299049Y-121797619D01*
X121060954Y-121130952D02*
X121060954Y-121797619D01*
X121060954Y-121226190D02*
X121108573Y-121178571D01*
X121108573Y-121178571D02*
X121203811Y-121130952D01*
X121203811Y-121130952D02*
X121346668Y-121130952D01*
X121346668Y-121130952D02*
X121441906Y-121178571D01*
X121441906Y-121178571D02*
X121489525Y-121273809D01*
X121489525Y-121273809D02*
X121489525Y-121797619D01*
X122584763Y-121321428D02*
X122537144Y-121273809D01*
X122537144Y-121273809D02*
X122441906Y-121226190D01*
X122441906Y-121226190D02*
X122346668Y-121226190D01*
X122346668Y-121226190D02*
X122251430Y-121273809D01*
X122251430Y-121273809D02*
X122203811Y-121321428D01*
X122203811Y-121321428D02*
X122156192Y-121416666D01*
X122156192Y-121416666D02*
X122156192Y-121511904D01*
X122156192Y-121511904D02*
X122203811Y-121607142D01*
X122203811Y-121607142D02*
X122251430Y-121654761D01*
X122251430Y-121654761D02*
X122346668Y-121702380D01*
X122346668Y-121702380D02*
X122441906Y-121702380D01*
X122441906Y-121702380D02*
X122537144Y-121654761D01*
X122537144Y-121654761D02*
X122584763Y-121607142D01*
X122584763Y-121226190D02*
X122584763Y-121607142D01*
X122584763Y-121607142D02*
X122632382Y-121654761D01*
X122632382Y-121654761D02*
X122680001Y-121654761D01*
X122680001Y-121654761D02*
X122775240Y-121607142D01*
X122775240Y-121607142D02*
X122822859Y-121511904D01*
X122822859Y-121511904D02*
X122822859Y-121273809D01*
X122822859Y-121273809D02*
X122727621Y-121130952D01*
X122727621Y-121130952D02*
X122584763Y-121035714D01*
X122584763Y-121035714D02*
X122394287Y-120988095D01*
X122394287Y-120988095D02*
X122203811Y-121035714D01*
X122203811Y-121035714D02*
X122060954Y-121130952D01*
X122060954Y-121130952D02*
X121965716Y-121273809D01*
X121965716Y-121273809D02*
X121918097Y-121464285D01*
X121918097Y-121464285D02*
X121965716Y-121654761D01*
X121965716Y-121654761D02*
X122060954Y-121797619D01*
X122060954Y-121797619D02*
X122203811Y-121892857D01*
X122203811Y-121892857D02*
X122394287Y-121940476D01*
X122394287Y-121940476D02*
X122584763Y-121892857D01*
X122584763Y-121892857D02*
X122727621Y-121797619D01*
X123251430Y-121130952D02*
X123251430Y-122130952D01*
X123251430Y-121178571D02*
X123346668Y-121130952D01*
X123346668Y-121130952D02*
X123537144Y-121130952D01*
X123537144Y-121130952D02*
X123632382Y-121178571D01*
X123632382Y-121178571D02*
X123680001Y-121226190D01*
X123680001Y-121226190D02*
X123727620Y-121321428D01*
X123727620Y-121321428D02*
X123727620Y-121607142D01*
X123727620Y-121607142D02*
X123680001Y-121702380D01*
X123680001Y-121702380D02*
X123632382Y-121750000D01*
X123632382Y-121750000D02*
X123537144Y-121797619D01*
X123537144Y-121797619D02*
X123346668Y-121797619D01*
X123346668Y-121797619D02*
X123251430Y-121750000D01*
X124584763Y-121797619D02*
X124584763Y-121273809D01*
X124584763Y-121273809D02*
X124537144Y-121178571D01*
X124537144Y-121178571D02*
X124441906Y-121130952D01*
X124441906Y-121130952D02*
X124251430Y-121130952D01*
X124251430Y-121130952D02*
X124156192Y-121178571D01*
X124584763Y-121750000D02*
X124489525Y-121797619D01*
X124489525Y-121797619D02*
X124251430Y-121797619D01*
X124251430Y-121797619D02*
X124156192Y-121750000D01*
X124156192Y-121750000D02*
X124108573Y-121654761D01*
X124108573Y-121654761D02*
X124108573Y-121559523D01*
X124108573Y-121559523D02*
X124156192Y-121464285D01*
X124156192Y-121464285D02*
X124251430Y-121416666D01*
X124251430Y-121416666D02*
X124489525Y-121416666D01*
X124489525Y-121416666D02*
X124584763Y-121369047D01*
X125060954Y-121130952D02*
X125060954Y-122130952D01*
X125060954Y-121178571D02*
X125156192Y-121130952D01*
X125156192Y-121130952D02*
X125346668Y-121130952D01*
X125346668Y-121130952D02*
X125441906Y-121178571D01*
X125441906Y-121178571D02*
X125489525Y-121226190D01*
X125489525Y-121226190D02*
X125537144Y-121321428D01*
X125537144Y-121321428D02*
X125537144Y-121607142D01*
X125537144Y-121607142D02*
X125489525Y-121702380D01*
X125489525Y-121702380D02*
X125441906Y-121750000D01*
X125441906Y-121750000D02*
X125346668Y-121797619D01*
X125346668Y-121797619D02*
X125156192Y-121797619D01*
X125156192Y-121797619D02*
X125060954Y-121750000D01*
X126346668Y-121750000D02*
X126251430Y-121797619D01*
X126251430Y-121797619D02*
X126060954Y-121797619D01*
X126060954Y-121797619D02*
X125965716Y-121750000D01*
X125965716Y-121750000D02*
X125918097Y-121654761D01*
X125918097Y-121654761D02*
X125918097Y-121273809D01*
X125918097Y-121273809D02*
X125965716Y-121178571D01*
X125965716Y-121178571D02*
X126060954Y-121130952D01*
X126060954Y-121130952D02*
X126251430Y-121130952D01*
X126251430Y-121130952D02*
X126346668Y-121178571D01*
X126346668Y-121178571D02*
X126394287Y-121273809D01*
X126394287Y-121273809D02*
X126394287Y-121369047D01*
X126394287Y-121369047D02*
X125918097Y-121464285D01*
X126822859Y-121797619D02*
X126822859Y-121130952D01*
X126822859Y-121321428D02*
X126870478Y-121226190D01*
X126870478Y-121226190D02*
X126918097Y-121178571D01*
X126918097Y-121178571D02*
X127013335Y-121130952D01*
X127013335Y-121130952D02*
X127108573Y-121130952D01*
X127822859Y-121750000D02*
X127727621Y-121797619D01*
X127727621Y-121797619D02*
X127537145Y-121797619D01*
X127537145Y-121797619D02*
X127441907Y-121750000D01*
X127441907Y-121750000D02*
X127394288Y-121654761D01*
X127394288Y-121654761D02*
X127394288Y-121273809D01*
X127394288Y-121273809D02*
X127441907Y-121178571D01*
X127441907Y-121178571D02*
X127537145Y-121130952D01*
X127537145Y-121130952D02*
X127727621Y-121130952D01*
X127727621Y-121130952D02*
X127822859Y-121178571D01*
X127822859Y-121178571D02*
X127870478Y-121273809D01*
X127870478Y-121273809D02*
X127870478Y-121369047D01*
X127870478Y-121369047D02*
X127394288Y-121464285D01*
X128727621Y-121750000D02*
X128632383Y-121797619D01*
X128632383Y-121797619D02*
X128441907Y-121797619D01*
X128441907Y-121797619D02*
X128346669Y-121750000D01*
X128346669Y-121750000D02*
X128299050Y-121702380D01*
X128299050Y-121702380D02*
X128251431Y-121607142D01*
X128251431Y-121607142D02*
X128251431Y-121321428D01*
X128251431Y-121321428D02*
X128299050Y-121226190D01*
X128299050Y-121226190D02*
X128346669Y-121178571D01*
X128346669Y-121178571D02*
X128441907Y-121130952D01*
X128441907Y-121130952D02*
X128632383Y-121130952D01*
X128632383Y-121130952D02*
X128727621Y-121178571D01*
X129299050Y-121797619D02*
X129203812Y-121750000D01*
X129203812Y-121750000D02*
X129156193Y-121702380D01*
X129156193Y-121702380D02*
X129108574Y-121607142D01*
X129108574Y-121607142D02*
X129108574Y-121321428D01*
X129108574Y-121321428D02*
X129156193Y-121226190D01*
X129156193Y-121226190D02*
X129203812Y-121178571D01*
X129203812Y-121178571D02*
X129299050Y-121130952D01*
X129299050Y-121130952D02*
X129441907Y-121130952D01*
X129441907Y-121130952D02*
X129537145Y-121178571D01*
X129537145Y-121178571D02*
X129584764Y-121226190D01*
X129584764Y-121226190D02*
X129632383Y-121321428D01*
X129632383Y-121321428D02*
X129632383Y-121607142D01*
X129632383Y-121607142D02*
X129584764Y-121702380D01*
X129584764Y-121702380D02*
X129537145Y-121750000D01*
X129537145Y-121750000D02*
X129441907Y-121797619D01*
X129441907Y-121797619D02*
X129299050Y-121797619D01*
X130060955Y-121797619D02*
X130060955Y-121130952D01*
X130060955Y-121321428D02*
X130108574Y-121226190D01*
X130108574Y-121226190D02*
X130156193Y-121178571D01*
X130156193Y-121178571D02*
X130251431Y-121130952D01*
X130251431Y-121130952D02*
X130346669Y-121130952D01*
X131108574Y-121797619D02*
X131108574Y-120797619D01*
X131108574Y-121750000D02*
X131013336Y-121797619D01*
X131013336Y-121797619D02*
X130822860Y-121797619D01*
X130822860Y-121797619D02*
X130727622Y-121750000D01*
X130727622Y-121750000D02*
X130680003Y-121702380D01*
X130680003Y-121702380D02*
X130632384Y-121607142D01*
X130632384Y-121607142D02*
X130632384Y-121321428D01*
X130632384Y-121321428D02*
X130680003Y-121226190D01*
X130680003Y-121226190D02*
X130727622Y-121178571D01*
X130727622Y-121178571D02*
X130822860Y-121130952D01*
X130822860Y-121130952D02*
X131013336Y-121130952D01*
X131013336Y-121130952D02*
X131108574Y-121178571D01*
X131584765Y-121702380D02*
X131632384Y-121750000D01*
X131632384Y-121750000D02*
X131584765Y-121797619D01*
X131584765Y-121797619D02*
X131537146Y-121750000D01*
X131537146Y-121750000D02*
X131584765Y-121702380D01*
X131584765Y-121702380D02*
X131584765Y-121797619D01*
X132489526Y-121750000D02*
X132394288Y-121797619D01*
X132394288Y-121797619D02*
X132203812Y-121797619D01*
X132203812Y-121797619D02*
X132108574Y-121750000D01*
X132108574Y-121750000D02*
X132060955Y-121702380D01*
X132060955Y-121702380D02*
X132013336Y-121607142D01*
X132013336Y-121607142D02*
X132013336Y-121321428D01*
X132013336Y-121321428D02*
X132060955Y-121226190D01*
X132060955Y-121226190D02*
X132108574Y-121178571D01*
X132108574Y-121178571D02*
X132203812Y-121130952D01*
X132203812Y-121130952D02*
X132394288Y-121130952D01*
X132394288Y-121130952D02*
X132489526Y-121178571D01*
X133060955Y-121797619D02*
X132965717Y-121750000D01*
X132965717Y-121750000D02*
X132918098Y-121702380D01*
X132918098Y-121702380D02*
X132870479Y-121607142D01*
X132870479Y-121607142D02*
X132870479Y-121321428D01*
X132870479Y-121321428D02*
X132918098Y-121226190D01*
X132918098Y-121226190D02*
X132965717Y-121178571D01*
X132965717Y-121178571D02*
X133060955Y-121130952D01*
X133060955Y-121130952D02*
X133203812Y-121130952D01*
X133203812Y-121130952D02*
X133299050Y-121178571D01*
X133299050Y-121178571D02*
X133346669Y-121226190D01*
X133346669Y-121226190D02*
X133394288Y-121321428D01*
X133394288Y-121321428D02*
X133394288Y-121607142D01*
X133394288Y-121607142D02*
X133346669Y-121702380D01*
X133346669Y-121702380D02*
X133299050Y-121750000D01*
X133299050Y-121750000D02*
X133203812Y-121797619D01*
X133203812Y-121797619D02*
X133060955Y-121797619D01*
X133822860Y-121797619D02*
X133822860Y-121130952D01*
X133822860Y-121226190D02*
X133870479Y-121178571D01*
X133870479Y-121178571D02*
X133965717Y-121130952D01*
X133965717Y-121130952D02*
X134108574Y-121130952D01*
X134108574Y-121130952D02*
X134203812Y-121178571D01*
X134203812Y-121178571D02*
X134251431Y-121273809D01*
X134251431Y-121273809D02*
X134251431Y-121797619D01*
X134251431Y-121273809D02*
X134299050Y-121178571D01*
X134299050Y-121178571D02*
X134394288Y-121130952D01*
X134394288Y-121130952D02*
X134537145Y-121130952D01*
X134537145Y-121130952D02*
X134632384Y-121178571D01*
X134632384Y-121178571D02*
X134680003Y-121273809D01*
X134680003Y-121273809D02*
X134680003Y-121797619D01*
X135060955Y-122130952D02*
X135299050Y-122130952D01*
X135299050Y-122130952D02*
X135299050Y-120702380D01*
X135299050Y-120702380D02*
X135060955Y-120702380D01*
X170703809Y-80157619D02*
X170703809Y-80871904D01*
X170703809Y-80871904D02*
X170656190Y-81014761D01*
X170656190Y-81014761D02*
X170560952Y-81110000D01*
X170560952Y-81110000D02*
X170418095Y-81157619D01*
X170418095Y-81157619D02*
X170322857Y-81157619D01*
X171656190Y-81157619D02*
X171180000Y-81157619D01*
X171180000Y-81157619D02*
X171180000Y-80157619D01*
X172560952Y-81062380D02*
X172513333Y-81110000D01*
X172513333Y-81110000D02*
X172370476Y-81157619D01*
X172370476Y-81157619D02*
X172275238Y-81157619D01*
X172275238Y-81157619D02*
X172132381Y-81110000D01*
X172132381Y-81110000D02*
X172037143Y-81014761D01*
X172037143Y-81014761D02*
X171989524Y-80919523D01*
X171989524Y-80919523D02*
X171941905Y-80729047D01*
X171941905Y-80729047D02*
X171941905Y-80586190D01*
X171941905Y-80586190D02*
X171989524Y-80395714D01*
X171989524Y-80395714D02*
X172037143Y-80300476D01*
X172037143Y-80300476D02*
X172132381Y-80205238D01*
X172132381Y-80205238D02*
X172275238Y-80157619D01*
X172275238Y-80157619D02*
X172370476Y-80157619D01*
X172370476Y-80157619D02*
X172513333Y-80205238D01*
X172513333Y-80205238D02*
X172560952Y-80252857D01*
X173275238Y-80157619D02*
X173275238Y-80871904D01*
X173275238Y-80871904D02*
X173227619Y-81014761D01*
X173227619Y-81014761D02*
X173132381Y-81110000D01*
X173132381Y-81110000D02*
X172989524Y-81157619D01*
X172989524Y-81157619D02*
X172894286Y-81157619D01*
X174227619Y-81157619D02*
X173751429Y-81157619D01*
X173751429Y-81157619D02*
X173751429Y-80157619D01*
X175132381Y-81062380D02*
X175084762Y-81110000D01*
X175084762Y-81110000D02*
X174941905Y-81157619D01*
X174941905Y-81157619D02*
X174846667Y-81157619D01*
X174846667Y-81157619D02*
X174703810Y-81110000D01*
X174703810Y-81110000D02*
X174608572Y-81014761D01*
X174608572Y-81014761D02*
X174560953Y-80919523D01*
X174560953Y-80919523D02*
X174513334Y-80729047D01*
X174513334Y-80729047D02*
X174513334Y-80586190D01*
X174513334Y-80586190D02*
X174560953Y-80395714D01*
X174560953Y-80395714D02*
X174608572Y-80300476D01*
X174608572Y-80300476D02*
X174703810Y-80205238D01*
X174703810Y-80205238D02*
X174846667Y-80157619D01*
X174846667Y-80157619D02*
X174941905Y-80157619D01*
X174941905Y-80157619D02*
X175084762Y-80205238D01*
X175084762Y-80205238D02*
X175132381Y-80252857D01*
X175846667Y-80157619D02*
X175846667Y-80871904D01*
X175846667Y-80871904D02*
X175799048Y-81014761D01*
X175799048Y-81014761D02*
X175703810Y-81110000D01*
X175703810Y-81110000D02*
X175560953Y-81157619D01*
X175560953Y-81157619D02*
X175465715Y-81157619D01*
X176799048Y-81157619D02*
X176322858Y-81157619D01*
X176322858Y-81157619D02*
X176322858Y-80157619D01*
X177703810Y-81062380D02*
X177656191Y-81110000D01*
X177656191Y-81110000D02*
X177513334Y-81157619D01*
X177513334Y-81157619D02*
X177418096Y-81157619D01*
X177418096Y-81157619D02*
X177275239Y-81110000D01*
X177275239Y-81110000D02*
X177180001Y-81014761D01*
X177180001Y-81014761D02*
X177132382Y-80919523D01*
X177132382Y-80919523D02*
X177084763Y-80729047D01*
X177084763Y-80729047D02*
X177084763Y-80586190D01*
X177084763Y-80586190D02*
X177132382Y-80395714D01*
X177132382Y-80395714D02*
X177180001Y-80300476D01*
X177180001Y-80300476D02*
X177275239Y-80205238D01*
X177275239Y-80205238D02*
X177418096Y-80157619D01*
X177418096Y-80157619D02*
X177513334Y-80157619D01*
X177513334Y-80157619D02*
X177656191Y-80205238D01*
X177656191Y-80205238D02*
X177703810Y-80252857D01*
X178418096Y-80157619D02*
X178418096Y-80871904D01*
X178418096Y-80871904D02*
X178370477Y-81014761D01*
X178370477Y-81014761D02*
X178275239Y-81110000D01*
X178275239Y-81110000D02*
X178132382Y-81157619D01*
X178132382Y-81157619D02*
X178037144Y-81157619D01*
X179370477Y-81157619D02*
X178894287Y-81157619D01*
X178894287Y-81157619D02*
X178894287Y-80157619D01*
X180275239Y-81062380D02*
X180227620Y-81110000D01*
X180227620Y-81110000D02*
X180084763Y-81157619D01*
X180084763Y-81157619D02*
X179989525Y-81157619D01*
X179989525Y-81157619D02*
X179846668Y-81110000D01*
X179846668Y-81110000D02*
X179751430Y-81014761D01*
X179751430Y-81014761D02*
X179703811Y-80919523D01*
X179703811Y-80919523D02*
X179656192Y-80729047D01*
X179656192Y-80729047D02*
X179656192Y-80586190D01*
X179656192Y-80586190D02*
X179703811Y-80395714D01*
X179703811Y-80395714D02*
X179751430Y-80300476D01*
X179751430Y-80300476D02*
X179846668Y-80205238D01*
X179846668Y-80205238D02*
X179989525Y-80157619D01*
X179989525Y-80157619D02*
X180084763Y-80157619D01*
X180084763Y-80157619D02*
X180227620Y-80205238D01*
X180227620Y-80205238D02*
X180275239Y-80252857D01*
%TO.C,C4*%
X154787049Y-102056997D02*
X154834669Y-102104616D01*
X154834669Y-102104616D02*
X154882288Y-102247473D01*
X154882288Y-102247473D02*
X154882288Y-102342711D01*
X154882288Y-102342711D02*
X154834669Y-102485568D01*
X154834669Y-102485568D02*
X154739430Y-102580806D01*
X154739430Y-102580806D02*
X154644192Y-102628425D01*
X154644192Y-102628425D02*
X154453716Y-102676044D01*
X154453716Y-102676044D02*
X154310859Y-102676044D01*
X154310859Y-102676044D02*
X154120383Y-102628425D01*
X154120383Y-102628425D02*
X154025145Y-102580806D01*
X154025145Y-102580806D02*
X153929907Y-102485568D01*
X153929907Y-102485568D02*
X153882288Y-102342711D01*
X153882288Y-102342711D02*
X153882288Y-102247473D01*
X153882288Y-102247473D02*
X153929907Y-102104616D01*
X153929907Y-102104616D02*
X153977526Y-102056997D01*
X154215621Y-101199854D02*
X154882288Y-101199854D01*
X153834669Y-101437949D02*
X154548954Y-101676044D01*
X154548954Y-101676044D02*
X154548954Y-101056997D01*
%TO.C,J2*%
X176992288Y-101923333D02*
X177706573Y-101923333D01*
X177706573Y-101923333D02*
X177849430Y-101970952D01*
X177849430Y-101970952D02*
X177944669Y-102066190D01*
X177944669Y-102066190D02*
X177992288Y-102209047D01*
X177992288Y-102209047D02*
X177992288Y-102304285D01*
X177087526Y-101494761D02*
X177039907Y-101447142D01*
X177039907Y-101447142D02*
X176992288Y-101351904D01*
X176992288Y-101351904D02*
X176992288Y-101113809D01*
X176992288Y-101113809D02*
X177039907Y-101018571D01*
X177039907Y-101018571D02*
X177087526Y-100970952D01*
X177087526Y-100970952D02*
X177182764Y-100923333D01*
X177182764Y-100923333D02*
X177278002Y-100923333D01*
X177278002Y-100923333D02*
X177420859Y-100970952D01*
X177420859Y-100970952D02*
X177992288Y-101542380D01*
X177992288Y-101542380D02*
X177992288Y-100923333D01*
%TO.C,C3*%
X154787049Y-95936997D02*
X154834669Y-95984616D01*
X154834669Y-95984616D02*
X154882288Y-96127473D01*
X154882288Y-96127473D02*
X154882288Y-96222711D01*
X154882288Y-96222711D02*
X154834669Y-96365568D01*
X154834669Y-96365568D02*
X154739430Y-96460806D01*
X154739430Y-96460806D02*
X154644192Y-96508425D01*
X154644192Y-96508425D02*
X154453716Y-96556044D01*
X154453716Y-96556044D02*
X154310859Y-96556044D01*
X154310859Y-96556044D02*
X154120383Y-96508425D01*
X154120383Y-96508425D02*
X154025145Y-96460806D01*
X154025145Y-96460806D02*
X153929907Y-96365568D01*
X153929907Y-96365568D02*
X153882288Y-96222711D01*
X153882288Y-96222711D02*
X153882288Y-96127473D01*
X153882288Y-96127473D02*
X153929907Y-95984616D01*
X153929907Y-95984616D02*
X153977526Y-95936997D01*
X153882288Y-95603663D02*
X153882288Y-94984616D01*
X153882288Y-94984616D02*
X154263240Y-95317949D01*
X154263240Y-95317949D02*
X154263240Y-95175092D01*
X154263240Y-95175092D02*
X154310859Y-95079854D01*
X154310859Y-95079854D02*
X154358478Y-95032235D01*
X154358478Y-95032235D02*
X154453716Y-94984616D01*
X154453716Y-94984616D02*
X154691811Y-94984616D01*
X154691811Y-94984616D02*
X154787049Y-95032235D01*
X154787049Y-95032235D02*
X154834669Y-95079854D01*
X154834669Y-95079854D02*
X154882288Y-95175092D01*
X154882288Y-95175092D02*
X154882288Y-95460806D01*
X154882288Y-95460806D02*
X154834669Y-95556044D01*
X154834669Y-95556044D02*
X154787049Y-95603663D01*
%TO.C,D1*%
X132611905Y-88242619D02*
X132611905Y-87242619D01*
X132611905Y-87242619D02*
X132850000Y-87242619D01*
X132850000Y-87242619D02*
X132992857Y-87290238D01*
X132992857Y-87290238D02*
X133088095Y-87385476D01*
X133088095Y-87385476D02*
X133135714Y-87480714D01*
X133135714Y-87480714D02*
X133183333Y-87671190D01*
X133183333Y-87671190D02*
X133183333Y-87814047D01*
X133183333Y-87814047D02*
X133135714Y-88004523D01*
X133135714Y-88004523D02*
X133088095Y-88099761D01*
X133088095Y-88099761D02*
X132992857Y-88195000D01*
X132992857Y-88195000D02*
X132850000Y-88242619D01*
X132850000Y-88242619D02*
X132611905Y-88242619D01*
X134135714Y-88242619D02*
X133564286Y-88242619D01*
X133850000Y-88242619D02*
X133850000Y-87242619D01*
X133850000Y-87242619D02*
X133754762Y-87385476D01*
X133754762Y-87385476D02*
X133659524Y-87480714D01*
X133659524Y-87480714D02*
X133564286Y-87528333D01*
%TO.C,C1*%
X140803333Y-92307711D02*
X140755714Y-92355331D01*
X140755714Y-92355331D02*
X140612857Y-92402950D01*
X140612857Y-92402950D02*
X140517619Y-92402950D01*
X140517619Y-92402950D02*
X140374762Y-92355331D01*
X140374762Y-92355331D02*
X140279524Y-92260092D01*
X140279524Y-92260092D02*
X140231905Y-92164854D01*
X140231905Y-92164854D02*
X140184286Y-91974378D01*
X140184286Y-91974378D02*
X140184286Y-91831521D01*
X140184286Y-91831521D02*
X140231905Y-91641045D01*
X140231905Y-91641045D02*
X140279524Y-91545807D01*
X140279524Y-91545807D02*
X140374762Y-91450569D01*
X140374762Y-91450569D02*
X140517619Y-91402950D01*
X140517619Y-91402950D02*
X140612857Y-91402950D01*
X140612857Y-91402950D02*
X140755714Y-91450569D01*
X140755714Y-91450569D02*
X140803333Y-91498188D01*
X141755714Y-92402950D02*
X141184286Y-92402950D01*
X141470000Y-92402950D02*
X141470000Y-91402950D01*
X141470000Y-91402950D02*
X141374762Y-91545807D01*
X141374762Y-91545807D02*
X141279524Y-91641045D01*
X141279524Y-91641045D02*
X141184286Y-91688664D01*
%TO.C,D3*%
X132611905Y-95862619D02*
X132611905Y-94862619D01*
X132611905Y-94862619D02*
X132850000Y-94862619D01*
X132850000Y-94862619D02*
X132992857Y-94910238D01*
X132992857Y-94910238D02*
X133088095Y-95005476D01*
X133088095Y-95005476D02*
X133135714Y-95100714D01*
X133135714Y-95100714D02*
X133183333Y-95291190D01*
X133183333Y-95291190D02*
X133183333Y-95434047D01*
X133183333Y-95434047D02*
X133135714Y-95624523D01*
X133135714Y-95624523D02*
X133088095Y-95719761D01*
X133088095Y-95719761D02*
X132992857Y-95815000D01*
X132992857Y-95815000D02*
X132850000Y-95862619D01*
X132850000Y-95862619D02*
X132611905Y-95862619D01*
X133516667Y-94862619D02*
X134135714Y-94862619D01*
X134135714Y-94862619D02*
X133802381Y-95243571D01*
X133802381Y-95243571D02*
X133945238Y-95243571D01*
X133945238Y-95243571D02*
X134040476Y-95291190D01*
X134040476Y-95291190D02*
X134088095Y-95338809D01*
X134088095Y-95338809D02*
X134135714Y-95434047D01*
X134135714Y-95434047D02*
X134135714Y-95672142D01*
X134135714Y-95672142D02*
X134088095Y-95767380D01*
X134088095Y-95767380D02*
X134040476Y-95815000D01*
X134040476Y-95815000D02*
X133945238Y-95862619D01*
X133945238Y-95862619D02*
X133659524Y-95862619D01*
X133659524Y-95862619D02*
X133564286Y-95815000D01*
X133564286Y-95815000D02*
X133516667Y-95767380D01*
%TO.C,J1*%
X104153835Y-110502950D02*
X104153835Y-111217235D01*
X104153835Y-111217235D02*
X104106216Y-111360092D01*
X104106216Y-111360092D02*
X104010978Y-111455331D01*
X104010978Y-111455331D02*
X103868121Y-111502950D01*
X103868121Y-111502950D02*
X103772883Y-111502950D01*
X105153835Y-111502950D02*
X104582407Y-111502950D01*
X104868121Y-111502950D02*
X104868121Y-110502950D01*
X104868121Y-110502950D02*
X104772883Y-110645807D01*
X104772883Y-110645807D02*
X104677645Y-110741045D01*
X104677645Y-110741045D02*
X104582407Y-110788664D01*
%TO.C,R2*%
X117472619Y-103036666D02*
X116996428Y-103369999D01*
X117472619Y-103608094D02*
X116472619Y-103608094D01*
X116472619Y-103608094D02*
X116472619Y-103227142D01*
X116472619Y-103227142D02*
X116520238Y-103131904D01*
X116520238Y-103131904D02*
X116567857Y-103084285D01*
X116567857Y-103084285D02*
X116663095Y-103036666D01*
X116663095Y-103036666D02*
X116805952Y-103036666D01*
X116805952Y-103036666D02*
X116901190Y-103084285D01*
X116901190Y-103084285D02*
X116948809Y-103131904D01*
X116948809Y-103131904D02*
X116996428Y-103227142D01*
X116996428Y-103227142D02*
X116996428Y-103608094D01*
X116567857Y-102655713D02*
X116520238Y-102608094D01*
X116520238Y-102608094D02*
X116472619Y-102512856D01*
X116472619Y-102512856D02*
X116472619Y-102274761D01*
X116472619Y-102274761D02*
X116520238Y-102179523D01*
X116520238Y-102179523D02*
X116567857Y-102131904D01*
X116567857Y-102131904D02*
X116663095Y-102084285D01*
X116663095Y-102084285D02*
X116758333Y-102084285D01*
X116758333Y-102084285D02*
X116901190Y-102131904D01*
X116901190Y-102131904D02*
X117472619Y-102703332D01*
X117472619Y-102703332D02*
X117472619Y-102084285D01*
%TO.C,C7*%
X150227380Y-89106666D02*
X150275000Y-89154285D01*
X150275000Y-89154285D02*
X150322619Y-89297142D01*
X150322619Y-89297142D02*
X150322619Y-89392380D01*
X150322619Y-89392380D02*
X150275000Y-89535237D01*
X150275000Y-89535237D02*
X150179761Y-89630475D01*
X150179761Y-89630475D02*
X150084523Y-89678094D01*
X150084523Y-89678094D02*
X149894047Y-89725713D01*
X149894047Y-89725713D02*
X149751190Y-89725713D01*
X149751190Y-89725713D02*
X149560714Y-89678094D01*
X149560714Y-89678094D02*
X149465476Y-89630475D01*
X149465476Y-89630475D02*
X149370238Y-89535237D01*
X149370238Y-89535237D02*
X149322619Y-89392380D01*
X149322619Y-89392380D02*
X149322619Y-89297142D01*
X149322619Y-89297142D02*
X149370238Y-89154285D01*
X149370238Y-89154285D02*
X149417857Y-89106666D01*
X149322619Y-88773332D02*
X149322619Y-88106666D01*
X149322619Y-88106666D02*
X150322619Y-88535237D01*
%TO.C,C2*%
X139053002Y-107627711D02*
X139005383Y-107675331D01*
X139005383Y-107675331D02*
X138862526Y-107722950D01*
X138862526Y-107722950D02*
X138767288Y-107722950D01*
X138767288Y-107722950D02*
X138624431Y-107675331D01*
X138624431Y-107675331D02*
X138529193Y-107580092D01*
X138529193Y-107580092D02*
X138481574Y-107484854D01*
X138481574Y-107484854D02*
X138433955Y-107294378D01*
X138433955Y-107294378D02*
X138433955Y-107151521D01*
X138433955Y-107151521D02*
X138481574Y-106961045D01*
X138481574Y-106961045D02*
X138529193Y-106865807D01*
X138529193Y-106865807D02*
X138624431Y-106770569D01*
X138624431Y-106770569D02*
X138767288Y-106722950D01*
X138767288Y-106722950D02*
X138862526Y-106722950D01*
X138862526Y-106722950D02*
X139005383Y-106770569D01*
X139005383Y-106770569D02*
X139053002Y-106818188D01*
X139433955Y-106818188D02*
X139481574Y-106770569D01*
X139481574Y-106770569D02*
X139576812Y-106722950D01*
X139576812Y-106722950D02*
X139814907Y-106722950D01*
X139814907Y-106722950D02*
X139910145Y-106770569D01*
X139910145Y-106770569D02*
X139957764Y-106818188D01*
X139957764Y-106818188D02*
X140005383Y-106913426D01*
X140005383Y-106913426D02*
X140005383Y-107008664D01*
X140005383Y-107008664D02*
X139957764Y-107151521D01*
X139957764Y-107151521D02*
X139386336Y-107722950D01*
X139386336Y-107722950D02*
X140005383Y-107722950D01*
%TO.C,C6*%
X160663002Y-83227380D02*
X160615383Y-83275000D01*
X160615383Y-83275000D02*
X160472526Y-83322619D01*
X160472526Y-83322619D02*
X160377288Y-83322619D01*
X160377288Y-83322619D02*
X160234431Y-83275000D01*
X160234431Y-83275000D02*
X160139193Y-83179761D01*
X160139193Y-83179761D02*
X160091574Y-83084523D01*
X160091574Y-83084523D02*
X160043955Y-82894047D01*
X160043955Y-82894047D02*
X160043955Y-82751190D01*
X160043955Y-82751190D02*
X160091574Y-82560714D01*
X160091574Y-82560714D02*
X160139193Y-82465476D01*
X160139193Y-82465476D02*
X160234431Y-82370238D01*
X160234431Y-82370238D02*
X160377288Y-82322619D01*
X160377288Y-82322619D02*
X160472526Y-82322619D01*
X160472526Y-82322619D02*
X160615383Y-82370238D01*
X160615383Y-82370238D02*
X160663002Y-82417857D01*
X161520145Y-82322619D02*
X161329669Y-82322619D01*
X161329669Y-82322619D02*
X161234431Y-82370238D01*
X161234431Y-82370238D02*
X161186812Y-82417857D01*
X161186812Y-82417857D02*
X161091574Y-82560714D01*
X161091574Y-82560714D02*
X161043955Y-82751190D01*
X161043955Y-82751190D02*
X161043955Y-83132142D01*
X161043955Y-83132142D02*
X161091574Y-83227380D01*
X161091574Y-83227380D02*
X161139193Y-83275000D01*
X161139193Y-83275000D02*
X161234431Y-83322619D01*
X161234431Y-83322619D02*
X161424907Y-83322619D01*
X161424907Y-83322619D02*
X161520145Y-83275000D01*
X161520145Y-83275000D02*
X161567764Y-83227380D01*
X161567764Y-83227380D02*
X161615383Y-83132142D01*
X161615383Y-83132142D02*
X161615383Y-82894047D01*
X161615383Y-82894047D02*
X161567764Y-82798809D01*
X161567764Y-82798809D02*
X161520145Y-82751190D01*
X161520145Y-82751190D02*
X161424907Y-82703571D01*
X161424907Y-82703571D02*
X161234431Y-82703571D01*
X161234431Y-82703571D02*
X161139193Y-82751190D01*
X161139193Y-82751190D02*
X161091574Y-82798809D01*
X161091574Y-82798809D02*
X161043955Y-82894047D01*
%TO.C,C5*%
X163243002Y-121247711D02*
X163195383Y-121295331D01*
X163195383Y-121295331D02*
X163052526Y-121342950D01*
X163052526Y-121342950D02*
X162957288Y-121342950D01*
X162957288Y-121342950D02*
X162814431Y-121295331D01*
X162814431Y-121295331D02*
X162719193Y-121200092D01*
X162719193Y-121200092D02*
X162671574Y-121104854D01*
X162671574Y-121104854D02*
X162623955Y-120914378D01*
X162623955Y-120914378D02*
X162623955Y-120771521D01*
X162623955Y-120771521D02*
X162671574Y-120581045D01*
X162671574Y-120581045D02*
X162719193Y-120485807D01*
X162719193Y-120485807D02*
X162814431Y-120390569D01*
X162814431Y-120390569D02*
X162957288Y-120342950D01*
X162957288Y-120342950D02*
X163052526Y-120342950D01*
X163052526Y-120342950D02*
X163195383Y-120390569D01*
X163195383Y-120390569D02*
X163243002Y-120438188D01*
X164147764Y-120342950D02*
X163671574Y-120342950D01*
X163671574Y-120342950D02*
X163623955Y-120819140D01*
X163623955Y-120819140D02*
X163671574Y-120771521D01*
X163671574Y-120771521D02*
X163766812Y-120723902D01*
X163766812Y-120723902D02*
X164004907Y-120723902D01*
X164004907Y-120723902D02*
X164100145Y-120771521D01*
X164100145Y-120771521D02*
X164147764Y-120819140D01*
X164147764Y-120819140D02*
X164195383Y-120914378D01*
X164195383Y-120914378D02*
X164195383Y-121152473D01*
X164195383Y-121152473D02*
X164147764Y-121247711D01*
X164147764Y-121247711D02*
X164100145Y-121295331D01*
X164100145Y-121295331D02*
X164004907Y-121342950D01*
X164004907Y-121342950D02*
X163766812Y-121342950D01*
X163766812Y-121342950D02*
X163671574Y-121295331D01*
X163671574Y-121295331D02*
X163623955Y-121247711D01*
%TO.C,U2*%
X160327764Y-90397950D02*
X160327764Y-91207473D01*
X160327764Y-91207473D02*
X160375383Y-91302711D01*
X160375383Y-91302711D02*
X160423002Y-91350331D01*
X160423002Y-91350331D02*
X160518240Y-91397950D01*
X160518240Y-91397950D02*
X160708716Y-91397950D01*
X160708716Y-91397950D02*
X160803954Y-91350331D01*
X160803954Y-91350331D02*
X160851573Y-91302711D01*
X160851573Y-91302711D02*
X160899192Y-91207473D01*
X160899192Y-91207473D02*
X160899192Y-90397950D01*
X161327764Y-90493188D02*
X161375383Y-90445569D01*
X161375383Y-90445569D02*
X161470621Y-90397950D01*
X161470621Y-90397950D02*
X161708716Y-90397950D01*
X161708716Y-90397950D02*
X161803954Y-90445569D01*
X161803954Y-90445569D02*
X161851573Y-90493188D01*
X161851573Y-90493188D02*
X161899192Y-90588426D01*
X161899192Y-90588426D02*
X161899192Y-90683664D01*
X161899192Y-90683664D02*
X161851573Y-90826521D01*
X161851573Y-90826521D02*
X161280145Y-91397950D01*
X161280145Y-91397950D02*
X161899192Y-91397950D01*
%TO.C,R1*%
X125092619Y-103036666D02*
X124616428Y-103369999D01*
X125092619Y-103608094D02*
X124092619Y-103608094D01*
X124092619Y-103608094D02*
X124092619Y-103227142D01*
X124092619Y-103227142D02*
X124140238Y-103131904D01*
X124140238Y-103131904D02*
X124187857Y-103084285D01*
X124187857Y-103084285D02*
X124283095Y-103036666D01*
X124283095Y-103036666D02*
X124425952Y-103036666D01*
X124425952Y-103036666D02*
X124521190Y-103084285D01*
X124521190Y-103084285D02*
X124568809Y-103131904D01*
X124568809Y-103131904D02*
X124616428Y-103227142D01*
X124616428Y-103227142D02*
X124616428Y-103608094D01*
X125092619Y-102084285D02*
X125092619Y-102655713D01*
X125092619Y-102369999D02*
X124092619Y-102369999D01*
X124092619Y-102369999D02*
X124235476Y-102465237D01*
X124235476Y-102465237D02*
X124330714Y-102560475D01*
X124330714Y-102560475D02*
X124378333Y-102655713D01*
%TO.C,U1*%
X131697288Y-101422235D02*
X132506811Y-101422235D01*
X132506811Y-101422235D02*
X132602049Y-101374616D01*
X132602049Y-101374616D02*
X132649669Y-101326997D01*
X132649669Y-101326997D02*
X132697288Y-101231759D01*
X132697288Y-101231759D02*
X132697288Y-101041283D01*
X132697288Y-101041283D02*
X132649669Y-100946045D01*
X132649669Y-100946045D02*
X132602049Y-100898426D01*
X132602049Y-100898426D02*
X132506811Y-100850807D01*
X132506811Y-100850807D02*
X131697288Y-100850807D01*
X132697288Y-99850807D02*
X132697288Y-100422235D01*
X132697288Y-100136521D02*
X131697288Y-100136521D01*
X131697288Y-100136521D02*
X131840145Y-100231759D01*
X131840145Y-100231759D02*
X131935383Y-100326997D01*
X131935383Y-100326997D02*
X131983002Y-100422235D01*
D11*
%TO.C,C4*%
X152254669Y-99353043D02*
X152254669Y-99803043D01*
X152479669Y-99578043D02*
X152029669Y-99578043D01*
X149859669Y-99770590D02*
G75*
G03*
X151979669Y-99770590I1060000J-2119741D01*
G01*
%TO.C,J2*%
X187109669Y-110200000D02*
X187109669Y-108190000D01*
X191209669Y-110200000D02*
X187109669Y-110200000D01*
X178269669Y-108190000D02*
X178269669Y-94990000D01*
X187109669Y-108190000D02*
X178269669Y-108190000D01*
X177575331Y-96300000D02*
X177575331Y-95800000D01*
X178008344Y-96050000D02*
X177575331Y-96300000D01*
X177575331Y-95800000D02*
X178008344Y-96050000D01*
X178269669Y-94990000D02*
X187109669Y-94990000D01*
X187109669Y-94990000D02*
X187109669Y-92980000D01*
X187109669Y-92980000D02*
X191209669Y-92980000D01*
%TO.C,C3*%
X152254669Y-93233043D02*
X152254669Y-93683043D01*
X152479669Y-93458043D02*
X152029669Y-93458043D01*
X149859669Y-93650590D02*
G75*
G03*
X151979669Y-93650590I1060000J-2119741D01*
G01*
%TO.C,D1*%
X135910000Y-85365000D02*
X135910000Y-82275000D01*
X130360001Y-83819538D02*
G75*
G03*
X135909999Y-85364830I2989999J-462D01*
G01*
X135910000Y-82275170D02*
G75*
G03*
X130360000Y-83820462I-2560000J-1544830D01*
G01*
X135850000Y-83820000D02*
G75*
G03*
X135850000Y-83820000I-2500000J0D01*
G01*
%TO.C,C1*%
X143590000Y-90810331D02*
X143590000Y-90495331D01*
X143590000Y-90810331D02*
X138350000Y-90810331D01*
X143590000Y-88385331D02*
X143590000Y-88070331D01*
X143590000Y-88070331D02*
X138350000Y-88070331D01*
X138350000Y-90810331D02*
X138350000Y-90495331D01*
X138350000Y-88385331D02*
X138350000Y-88070331D01*
%TO.C,D3*%
X135910000Y-92985000D02*
X135910000Y-89895000D01*
X130360001Y-91439538D02*
G75*
G03*
X135909999Y-92984830I2989999J-462D01*
G01*
X135910000Y-89895170D02*
G75*
G03*
X130360000Y-91440462I-2560000J-1544830D01*
G01*
X135850000Y-91440000D02*
G75*
G03*
X135850000Y-91440000I-2500000J0D01*
G01*
%TO.C,J1*%
X114037169Y-103890331D02*
X114037169Y-102890331D01*
X114037169Y-102890331D02*
X113537169Y-103390331D01*
X113537169Y-103390331D02*
X114037169Y-103890331D01*
X113337169Y-108250331D02*
X109587169Y-108250331D01*
X113337169Y-96030331D02*
X113337169Y-108250331D01*
X113337169Y-96030331D02*
X109587169Y-96030331D01*
X96717169Y-108250331D02*
X104687169Y-108250331D01*
X96717169Y-96030331D02*
X104687169Y-96030331D01*
X96717169Y-96030331D02*
X96717169Y-108250331D01*
%TO.C,R2*%
X119380000Y-106910000D02*
X119380000Y-106140000D01*
X118010000Y-106140000D02*
X120750000Y-106140000D01*
X120750000Y-106140000D02*
X120750000Y-99600000D01*
X118010000Y-99600000D02*
X118010000Y-106140000D01*
X120750000Y-99600000D02*
X118010000Y-99600000D01*
X119380000Y-98830000D02*
X119380000Y-99600000D01*
%TO.C,C7*%
X145950000Y-91560000D02*
X146265000Y-91560000D01*
X145950000Y-91560000D02*
X145950000Y-86320000D01*
X148375000Y-91560000D02*
X148690000Y-91560000D01*
X148690000Y-91560000D02*
X148690000Y-86320000D01*
X145950000Y-86320000D02*
X146265000Y-86320000D01*
X148375000Y-86320000D02*
X148690000Y-86320000D01*
%TO.C,C2*%
X136599669Y-108390331D02*
X136599669Y-108705331D01*
X136599669Y-108390331D02*
X141839669Y-108390331D01*
X136599669Y-110815331D02*
X136599669Y-111130331D01*
X136599669Y-111130331D02*
X141839669Y-111130331D01*
X141839669Y-108390331D02*
X141839669Y-108705331D01*
X141839669Y-110815331D02*
X141839669Y-111130331D01*
%TO.C,C6*%
X158292381Y-85025000D02*
X158742381Y-85025000D01*
X158517381Y-84800000D02*
X158517381Y-85250000D01*
X158709928Y-87420000D02*
G75*
G03*
X158709928Y-85300000I2119741J1060000D01*
G01*
%TO.C,C5*%
X165946957Y-118715331D02*
X165496957Y-118715331D01*
X165721957Y-118940331D02*
X165721957Y-118490331D01*
X165529410Y-116320331D02*
G75*
G03*
X165529410Y-118440331I-2119741J-1060000D01*
G01*
%TO.C,U2*%
X158439669Y-91935331D02*
X158439669Y-112375331D01*
X158439669Y-112375331D02*
X163739669Y-112375331D01*
X160089669Y-91935331D02*
X158439669Y-91935331D01*
X163739669Y-91935331D02*
X162089669Y-91935331D01*
X163739669Y-112375331D02*
X163739669Y-91935331D01*
X160089669Y-91935331D02*
G75*
G03*
X162089669Y-91935331I1000000J0D01*
G01*
%TO.C,R1*%
X127000000Y-106910000D02*
X127000000Y-106140000D01*
X125630000Y-106140000D02*
X128370000Y-106140000D01*
X128370000Y-106140000D02*
X128370000Y-99600000D01*
X125630000Y-99600000D02*
X125630000Y-106140000D01*
X128370000Y-99600000D02*
X125630000Y-99600000D01*
X127000000Y-98830000D02*
X127000000Y-99600000D01*
D10*
%TO.C,U1*%
X133159669Y-103535331D02*
X133734669Y-103535331D01*
X133159669Y-103535331D02*
X133159669Y-97785331D01*
X133734669Y-103535331D02*
X133734669Y-105135331D01*
X143809669Y-103535331D02*
X143159669Y-103535331D01*
X143809669Y-103535331D02*
X143809669Y-97785331D01*
X133159669Y-97785331D02*
X133809669Y-97785331D01*
X143809669Y-97785331D02*
X143159669Y-97785331D01*
%TD*%
M02*
