%TF.GenerationSoftware,KiCad,Pcbnew,7.0.1*%
%TF.CreationDate,2023-04-09T16:17:11+09:00*%
%TF.ProjectId,RS232_Converter,52533233-325f-4436-9f6e-766572746572,rev?*%
%TF.SameCoordinates,Original*%
%TF.FileFunction,Drillmap*%
%TF.FilePolarity,Positive*%
%FSLAX45Y45*%
G04 Gerber Fmt 4.5, Leading zero omitted, Abs format (unit mm)*
G04 Created by KiCad (PCBNEW 7.0.1) date 2023-04-09 16:17:11*
%MOMM*%
%LPD*%
G01*
G04 APERTURE LIST*
%ADD10C,0.100000*%
%ADD11C,0.200000*%
G04 APERTURE END LIST*
D10*
X10160000Y-12500000D02*
G75*
G03*
X10360000Y-12700000I200000J0D01*
G01*
X10160000Y-12500000D02*
X10160000Y-7820000D01*
X18596000Y-12700000D02*
X10360000Y-12700000D01*
X18796000Y-7820000D02*
X18796000Y-12500000D01*
X10360000Y-7620000D02*
X18596000Y-7620000D01*
X10360000Y-7620000D02*
G75*
G03*
X10160000Y-7820000I0J-200000D01*
G01*
X18796000Y-7820000D02*
G75*
G03*
X18596000Y-7620000I-200000J0D01*
G01*
X18596000Y-12700000D02*
G75*
G03*
X18796000Y-12500000I0J200000D01*
G01*
D11*
X10402619Y-13017524D02*
X10402619Y-12817524D01*
X10402619Y-12817524D02*
X10450238Y-12817524D01*
X10450238Y-12817524D02*
X10478810Y-12827048D01*
X10478810Y-12827048D02*
X10497857Y-12846095D01*
X10497857Y-12846095D02*
X10507381Y-12865143D01*
X10507381Y-12865143D02*
X10516905Y-12903238D01*
X10516905Y-12903238D02*
X10516905Y-12931809D01*
X10516905Y-12931809D02*
X10507381Y-12969905D01*
X10507381Y-12969905D02*
X10497857Y-12988952D01*
X10497857Y-12988952D02*
X10478810Y-13008000D01*
X10478810Y-13008000D02*
X10450238Y-13017524D01*
X10450238Y-13017524D02*
X10402619Y-13017524D01*
X10602619Y-13017524D02*
X10602619Y-12884190D01*
X10602619Y-12922286D02*
X10612143Y-12903238D01*
X10612143Y-12903238D02*
X10621667Y-12893714D01*
X10621667Y-12893714D02*
X10640714Y-12884190D01*
X10640714Y-12884190D02*
X10659762Y-12884190D01*
X10726429Y-13017524D02*
X10726429Y-12884190D01*
X10726429Y-12817524D02*
X10716905Y-12827048D01*
X10716905Y-12827048D02*
X10726429Y-12836571D01*
X10726429Y-12836571D02*
X10735952Y-12827048D01*
X10735952Y-12827048D02*
X10726429Y-12817524D01*
X10726429Y-12817524D02*
X10726429Y-12836571D01*
X10850238Y-13017524D02*
X10831190Y-13008000D01*
X10831190Y-13008000D02*
X10821667Y-12988952D01*
X10821667Y-12988952D02*
X10821667Y-12817524D01*
X10955000Y-13017524D02*
X10935952Y-13008000D01*
X10935952Y-13008000D02*
X10926429Y-12988952D01*
X10926429Y-12988952D02*
X10926429Y-12817524D01*
X11183571Y-13017524D02*
X11183571Y-12817524D01*
X11183571Y-12817524D02*
X11250238Y-12960381D01*
X11250238Y-12960381D02*
X11316905Y-12817524D01*
X11316905Y-12817524D02*
X11316905Y-13017524D01*
X11497857Y-13017524D02*
X11497857Y-12912762D01*
X11497857Y-12912762D02*
X11488333Y-12893714D01*
X11488333Y-12893714D02*
X11469286Y-12884190D01*
X11469286Y-12884190D02*
X11431190Y-12884190D01*
X11431190Y-12884190D02*
X11412143Y-12893714D01*
X11497857Y-13008000D02*
X11478809Y-13017524D01*
X11478809Y-13017524D02*
X11431190Y-13017524D01*
X11431190Y-13017524D02*
X11412143Y-13008000D01*
X11412143Y-13008000D02*
X11402619Y-12988952D01*
X11402619Y-12988952D02*
X11402619Y-12969905D01*
X11402619Y-12969905D02*
X11412143Y-12950857D01*
X11412143Y-12950857D02*
X11431190Y-12941333D01*
X11431190Y-12941333D02*
X11478809Y-12941333D01*
X11478809Y-12941333D02*
X11497857Y-12931809D01*
X11593095Y-12884190D02*
X11593095Y-13084190D01*
X11593095Y-12893714D02*
X11612143Y-12884190D01*
X11612143Y-12884190D02*
X11650238Y-12884190D01*
X11650238Y-12884190D02*
X11669286Y-12893714D01*
X11669286Y-12893714D02*
X11678809Y-12903238D01*
X11678809Y-12903238D02*
X11688333Y-12922286D01*
X11688333Y-12922286D02*
X11688333Y-12979428D01*
X11688333Y-12979428D02*
X11678809Y-12998476D01*
X11678809Y-12998476D02*
X11669286Y-13008000D01*
X11669286Y-13008000D02*
X11650238Y-13017524D01*
X11650238Y-13017524D02*
X11612143Y-13017524D01*
X11612143Y-13017524D02*
X11593095Y-13008000D01*
X11774048Y-12998476D02*
X11783571Y-13008000D01*
X11783571Y-13008000D02*
X11774048Y-13017524D01*
X11774048Y-13017524D02*
X11764524Y-13008000D01*
X11764524Y-13008000D02*
X11774048Y-12998476D01*
X11774048Y-12998476D02*
X11774048Y-13017524D01*
X11774048Y-12893714D02*
X11783571Y-12903238D01*
X11783571Y-12903238D02*
X11774048Y-12912762D01*
X11774048Y-12912762D02*
X11764524Y-12903238D01*
X11764524Y-12903238D02*
X11774048Y-12893714D01*
X11774048Y-12893714D02*
X11774048Y-12912762D01*
M02*
